<svg width="40" height="40" viewBox="0 0 40 40" fill="none" xmlns="http://www.w3.org/2000/svg">
<g clip-path="url(#clip0_7507_62147)">
<path d="M35.5 20C35.5 28.5604 28.5604 35.5 20 35.5C11.4396 35.5 4.5 28.5604 4.5 20C4.5 11.4396 11.4396 4.5 20 4.5C28.5604 4.5 35.5 11.4396 35.5 20Z" stroke="white"/>
<path d="M15.1105 23.2821L14.8104 22.2506H12.5036L12.2035 23.2821H10.5625L12.7005 16.718H14.6135L16.7515 23.2821H15.1105ZM12.9256 20.844H14.3884L13.657 18.359L12.9256 20.844Z" fill="white"/>
<path d="M20.2867 21.0034V19.6906H23.475V21.0034V23.2821H22.0684V22.5131C21.6058 23.1133 20.94 23.4133 20.0711 23.4133C19.1583 23.4133 18.3925 23.0883 17.7736 22.4381C17.1547 21.7817 16.8453 20.969 16.8453 20C16.8453 19.031 17.1672 18.2214 17.8111 17.5713C18.4613 16.9149 19.2771 16.5867 20.2586 16.5867C21.0463 16.5867 21.7434 16.818 22.3498 17.2806C22.9562 17.737 23.3312 18.2996 23.475 18.9685H21.909C21.8027 18.7122 21.5964 18.4965 21.2901 18.3215C20.9838 18.1402 20.64 18.0495 20.2586 18.0495C19.6772 18.0495 19.2115 18.2277 18.8614 18.584C18.5176 18.9404 18.3457 19.4124 18.3457 20C18.3457 20.6252 18.5238 21.1222 18.8802 21.491C19.2365 21.8598 19.696 22.0443 20.2586 22.0443C20.665 22.0443 21.0151 21.9536 21.3089 21.7723C21.6089 21.591 21.8184 21.3347 21.9372 21.0034H20.2867Z" fill="white"/>
<path d="M27.0874 16.718C27.7313 16.718 28.2752 16.9368 28.7191 17.3744C29.1629 17.812 29.3848 18.3433 29.3848 18.9685C29.3848 19.5937 29.1629 20.125 28.7191 20.5626C28.2752 21.0002 27.7313 21.2191 27.0874 21.2191H26.1028V23.2821H24.6024V16.718H26.1028H27.0874ZM27.0874 19.8125C27.3187 19.8125 27.5094 19.7312 27.6594 19.5686C27.8095 19.4061 27.8845 19.2061 27.8845 18.9685C27.8845 18.7309 27.8095 18.5309 27.6594 18.3684C27.5094 18.2058 27.3187 18.1245 27.0874 18.1245H26.1028V19.8125H27.0874Z" fill="white"/>
</g>
<defs>
<clipPath id="clip0_7507_62147">
<rect width="32" height="32" fill="white" transform="translate(4 4)"/>
</clipPath>
</defs>
</svg>
