<svg width="40" height="40" viewBox="0 0 40 40" fill="none" xmlns="http://www.w3.org/2000/svg">
<path d="M6.77436 16.2675L6.77436 16.2675L4.5512 26.5824C4.42563 27.2767 4.53229 27.9921 4.85749 28.6263C5.18401 29.2631 5.71504 29.7868 6.37684 30.1182C7.03886 30.4497 7.79516 30.5701 8.53513 30.4606C9.27094 30.3518 9.94898 30.0217 10.4729 29.5214L16.6399 22.9641C16.7344 22.8636 16.8662 22.8066 17.0042 22.8066H20H20L22.9958 22.8064C23.1337 22.8064 23.2656 22.8633 23.3601 22.9638L29.5271 29.5212C30.051 30.0214 30.7291 30.3515 31.4649 30.4604C32.2048 30.5699 32.9611 30.4494 33.6232 30.1179C34.285 29.7866 34.816 29.2628 35.1425 28.626C35.4677 27.9918 35.5744 27.2765 35.4488 26.5822L34.3381 21.4287L33.2256 16.2673L6.77436 16.2675ZM6.77436 16.2675L6.77481 16.2655L6.77481 16.2654L6.77483 16.2653L6.77485 16.2652L6.77517 16.2638L6.77664 16.2569L6.78296 16.2279C6.78868 16.202 6.79738 16.1632 6.80903 16.1129C6.83233 16.0123 6.86737 15.8661 6.91379 15.6861C7.00678 15.3255 7.14476 14.8319 7.32476 14.2986C7.50517 13.7642 7.72511 13.198 7.98046 12.6893C8.2387 12.1748 8.51856 11.749 8.80784 11.4707C10.1058 10.2224 11.8701 9.51781 13.7137 9.51782L13.7151 9.51781L19.9986 9.5L20 9.5L26.2849 9.51755H26.2863C28.1299 9.51755 29.8942 10.2221 31.1922 11.4705C31.4814 11.7487 31.7613 12.1745 32.0195 12.689C32.2749 13.1977 32.4948 13.7639 32.6752 14.2984C32.8552 14.8316 32.9932 15.3253 33.0862 15.6858C33.1326 15.8659 33.1677 16.0121 33.191 16.1127C33.2026 16.1629 33.2113 16.2018 33.217 16.2277L33.2234 16.2566L33.2248 16.2635L33.2251 16.265L33.2252 16.2651L33.2252 16.2652L6.77436 16.2675Z" stroke="white" stroke-linecap="round" stroke-linejoin="round"/>
<path d="M13.5 19.5V14.5M16 17H11" stroke="white" stroke-width="0.8" stroke-linecap="square" stroke-linejoin="round"/>
<circle cx="25" cy="17" r="1" fill="white"/>
<circle cx="27" cy="15" r="1" fill="white"/>
<circle cx="29" cy="17" r="1" fill="white"/>
<circle cx="27" cy="19" r="1" fill="white"/>
</svg>

