<svg width="40" height="40" viewBox="0 0 40 40" fill="none" xmlns="http://www.w3.org/2000/svg">
<mask id="path-1-inside-1_7469_63123" fill="white">
<path fill-rule="evenodd" clip-rule="evenodd" d="M10.4124 25.75C11.1609 27.3145 12.1816 28.7238 13.4132 29.9167H5.125C4.5497 29.9167 4.08333 29.4503 4.08333 28.875V26.7917C4.08333 26.2164 4.5497 25.75 5.125 25.75H10.4124ZM9.03684 20.5417C9.14042 22.0008 9.45989 23.4003 9.96351 24.7083H3.04167C2.46637 24.7083 2 24.242 2 23.6667V21.5833C2 21.008 2.46637 20.5417 3.04167 20.5417H9.03684ZM9.60757 15.3333C9.21233 16.653 9 18.0517 9 19.5H5.125C4.5497 19.5 4.08333 19.0336 4.08333 18.4583V16.375C4.08333 15.7997 4.5497 15.3333 5.125 15.3333H9.60757ZM12.438 10.125C11.3948 11.3547 10.553 12.7605 9.96351 14.2917H3.04167C2.46637 14.2917 2 13.8253 2 13.25V11.1667C2 10.5914 2.46637 10.125 3.04167 10.125H12.438Z"/>
</mask>
<path d="M10.4124 25.75L11.3145 25.3184L11.0425 24.75H10.4124V25.75ZM13.4132 29.9167V30.9167H15.8831L14.1089 29.1983L13.4132 29.9167ZM9.03684 20.5417L10.0343 20.4709L9.96837 19.5417H9.03684V20.5417ZM9.96351 24.7083V25.7083H11.4201L10.8967 24.349L9.96351 24.7083ZM9.60757 15.3333L10.5655 15.6202L10.951 14.3333H9.60757V15.3333ZM9 19.5V20.5H10V19.5H9ZM12.438 10.125L13.2006 10.7719L14.5977 9.125H12.438V10.125ZM9.96351 14.2917V15.2917H10.6501L10.8967 14.651L9.96351 14.2917ZM9.51032 26.1816C10.3106 27.8543 11.4016 29.3605 12.7175 30.635L14.1089 29.1983C12.9616 28.0871 12.0111 26.7746 11.3145 25.3184L9.51032 26.1816ZM13.4132 28.9167H5.125V30.9167H13.4132V28.9167ZM5.125 28.9167C5.10199 28.9167 5.08333 28.898 5.08333 28.875H3.08333C3.08333 30.0026 3.99742 30.9167 5.125 30.9167V28.9167ZM5.08333 28.875V26.7917H3.08333V28.875H5.08333ZM5.08333 26.7917C5.08333 26.7687 5.10199 26.75 5.125 26.75V24.75C3.99742 24.75 3.08333 25.6641 3.08333 26.7917H5.08333ZM5.125 26.75H10.4124V24.75H5.125V26.75ZM8.03935 20.6125C8.15004 22.1718 8.49159 23.6685 9.03029 25.0676L10.8967 24.349C10.4282 23.1321 10.1308 21.8298 10.0343 20.4709L8.03935 20.6125ZM3.04167 25.7083H9.96351V23.7083H3.04167V25.7083ZM1 23.6667C1 24.7942 1.91408 25.7083 3.04167 25.7083V23.7083C3.01866 23.7083 3 23.6897 3 23.6667H1ZM1 21.5833V23.6667H3V21.5833H1ZM3.04167 19.5417C1.91408 19.5417 1 20.4558 1 21.5833H3C3 21.5603 3.01866 21.5417 3.04167 21.5417V19.5417ZM9.03684 19.5417H3.04167V21.5417H9.03684V19.5417ZM8.64961 15.0464C8.2268 16.4582 8 17.9535 8 19.5H10C10 18.1499 10.1979 16.8478 10.5655 15.6202L8.64961 15.0464ZM9 18.5H5.125V20.5H9V18.5ZM5.125 18.5C5.10199 18.5 5.08333 18.4813 5.08333 18.4583H3.08333C3.08333 19.5859 3.99742 20.5 5.125 20.5V18.5ZM5.08333 18.4583V16.375H3.08333V18.4583H5.08333ZM5.08333 16.375C5.08333 16.352 5.10199 16.3333 5.125 16.3333V14.3333C3.99742 14.3333 3.08333 15.2474 3.08333 16.375H5.08333ZM5.125 16.3333H9.60757V14.3333H5.125V16.3333ZM11.6754 9.47809C10.5608 10.792 9.66076 12.2948 9.03029 13.9324L10.8967 14.651C11.4453 13.2262 12.2289 11.9173 13.2006 10.7719L11.6754 9.47809ZM9.96351 13.2917H3.04167V15.2917H9.96351V13.2917ZM3.04167 13.2917C3.01865 13.2917 3 13.273 3 13.25H1C1 14.3776 1.91409 15.2917 3.04167 15.2917V13.2917ZM3 13.25V11.1667H1V13.25H3ZM3 11.1667C3 11.1437 3.01865 11.125 3.04167 11.125V9.125C1.91409 9.125 1 10.0391 1 11.1667H3ZM3.04167 11.125H12.438V9.125H3.04167V11.125Z" fill="white" mask="url(#path-1-inside-1_7469_63123)"/>
<path d="M23.8359 32C30.7395 32 36.3359 26.4036 36.3359 19.5C36.3359 12.5964 30.7395 7 23.8359 7C16.9324 7 11.3359 12.5964 11.3359 19.5C11.3359 26.4036 16.9324 32 23.8359 32Z" stroke="white" stroke-linecap="round" stroke-linejoin="round"/>
<path d="M20.7096 24.7083H25.3971C26.0878 24.7083 26.7502 24.4339 27.2386 23.9455C27.7269 23.4572 28.0013 22.7948 28.0013 22.1041C28.0013 21.4135 27.7269 20.7511 27.2386 20.2627C26.7502 19.7743 26.0878 19.5 25.3971 19.5H22.2721C21.5815 19.5 20.9191 19.2256 20.4307 18.7372C19.9423 18.2488 19.668 17.5865 19.668 16.8958C19.668 16.2051 19.9423 15.5427 20.4307 15.0544C20.9191 14.566 21.5815 14.2916 22.2721 14.2916H26.9596" stroke="white" stroke-linecap="square" stroke-linejoin="round"/>
<path d="M23.8359 12.2084V14.2917" stroke="white" stroke-linecap="square" stroke-linejoin="round"/>
<path d="M23.8359 24.7084V26.7917" stroke="white" stroke-linecap="square" stroke-linejoin="round"/>
</svg>
