<svg width="40" height="40" viewBox="0 0 40 40" fill="none" xmlns="http://www.w3.org/2000/svg">
<path d="M25 32H15" stroke="white" stroke-linecap="square" stroke-linejoin="round"/>
<path d="M8.33333 29L31.6667 29C32.9553 29 34 27.9553 34 26.6667V10.3333C34 9.04467 32.9553 8 31.6667 8L8.33333 8C7.04467 8 6 9.04467 6 10.3333L6 26.6667C6 27.9553 7.04467 29 8.33333 29Z" stroke="white" stroke-linecap="round" stroke-linejoin="round"/>
<path d="M11.8843 15.0405L11.6702 15.4277L11.6702 15.4277L11.8843 15.0405ZM12.9766 14.4424L12.535 14.4141L12.535 14.4141L12.9766 14.4424ZM15.0934 14.2124L14.6681 14.3349L14.6681 14.3349L15.0934 14.2124ZM16.2887 14.5619L15.9964 14.2297L15.9964 14.2297L16.2887 14.5619ZM17.9481 15.8961L17.5608 15.682L17.5608 15.682L17.9481 15.8961ZM18.5462 16.9885L18.5179 17.4301L18.5462 16.9885ZM18.7761 19.1052L18.6537 18.68L18.6537 18.68L18.7761 19.1052ZM18.4266 20.3005L18.7588 20.0083L18.7588 20.0083L18.4266 20.3005ZM17.0925 21.9599L16.8784 22.3472L16.8784 22.3472L17.0925 21.9599ZM16.0001 22.558L15.5585 22.5297L16.0001 22.558ZM13.8833 22.788L14.3086 22.6655L13.8833 22.788ZM12.688 22.4384L12.9803 22.7707L12.9803 22.7707L12.688 22.4384ZM11.0286 21.1043L11.4159 21.3184L11.4159 21.3184L11.0286 21.1043ZM10.4306 20.0119L10.4023 20.4535L10.4023 20.4535L10.4306 20.0119ZM10.2006 17.8952L10.323 18.3204L10.323 18.3204L10.2006 17.8952ZM10.5501 16.6999L10.8824 16.4076L10.8824 16.4076L10.5501 16.6999ZM10.3292 17.8452L10.527 18.241L10.3292 17.8452ZM10.5639 17.4917L10.9925 17.6018L10.5639 17.4917ZM9.84743 17.9969L9.72499 17.5716L9.84743 17.9969ZM10.5662 20.033L10.674 19.6038L10.5662 20.033ZM11.084 20.9787L10.6643 20.8383L11.084 20.9787ZM11.0001 20.5623L10.6192 20.7876L11.0001 20.5623ZM10.9564 22.2515L11.2601 21.9297L10.9564 22.2515ZM12.4084 22.6844L12.1161 22.3522L12.4084 22.6844ZM15.9757 22.9389L16.4173 22.9671L15.9757 22.9389ZM16.0177 22.4367L15.5865 22.3375L16.0177 22.4367ZM18.6669 19.1459L18.8531 19.5473L18.6669 19.1459ZM18.4207 19.5077L17.9921 19.3977L18.4207 19.5077ZM19.6581 18.3372L19.2158 18.3517L19.6581 18.3372ZM19.1524 18.9969L19.03 18.5716L19.1524 18.9969ZM18.9367 17.0135L18.965 16.5719L18.9367 17.0135ZM19.5722 17.5488L19.1372 17.6299L19.5722 17.5488ZM17.899 16.0037L17.4832 15.8525L17.899 16.0037ZM13.8369 22.6667L14.2349 22.4733L13.8369 22.6667ZM13.4807 22.4276L13.3703 22.8561L13.4807 22.4276ZM16.5786 14.3069L16.2863 13.9747L16.5786 14.3069ZM17.4053 14.2352L17.156 14.6008L17.4053 14.2352ZM14.646 23.6587L14.659 24.101L14.646 23.6587ZM13.9885 23.1531L14.4137 23.0306L13.9885 23.1531ZM15.7565 14.6467L15.6183 15.067L15.7565 14.6467ZM16.1894 14.6359L15.9552 14.2605L16.1894 14.6359ZM15.1375 14.3289L14.7381 14.5194L15.1375 14.3289ZM18.2551 22.0399L17.9329 21.7366L18.2551 22.0399ZM17.4321 22.1477L17.6462 21.7604L17.4321 22.1477ZM12.9569 14.5727L12.5269 14.4681L12.9569 14.5727ZM14.9885 13.8481L14.5632 13.9705L14.9885 13.8481ZM13.2227 22.3519L13.3615 21.9317L13.2227 22.3519ZM12.7939 22.3604L12.5637 21.9825L12.7939 22.3604ZM18.0262 14.7323L17.724 15.0556L18.0262 14.7323ZM18.1356 15.557L17.7483 15.3429L18.1356 15.557ZM18.754 21.4214L18.3894 21.1708L18.754 21.4214ZM12.0062 15.0946L11.8636 15.5134L12.0062 15.0946ZM18.1124 16.6718L18.5073 16.4722L18.1124 16.6718ZM16.9813 21.9096L16.8322 22.3262L16.9813 21.9096ZM16.555 21.9919L16.7803 22.3728L16.555 21.9919ZM13.5342 13.4307L13.4519 12.9959L13.5342 13.4307ZM18.3441 19.7693L18.7642 19.9081L18.3441 19.7693ZM18.3561 20.2067L17.9826 20.4441L18.3561 20.2067ZM10.7359 14.9701L10.413 14.6676L10.7359 14.9701ZM11.3459 15.2485L11.6702 15.4277L12.0984 14.6532L11.7741 14.474L11.3459 15.2485ZM11.6702 15.4277C11.7329 15.4624 11.7976 15.491 11.8636 15.5134L12.1488 14.6757C12.1324 14.6701 12.1156 14.6627 12.0984 14.6532L11.6702 15.4277ZM12.6513 15.3913C12.7196 15.3507 12.7894 15.3124 12.8607 15.2763L12.4609 14.4867C12.3721 14.5317 12.285 14.5795 12.1998 14.6301L12.6513 15.3913ZM13.3868 14.6773C13.4031 14.6104 13.4137 14.5413 13.4182 14.4707L12.535 14.4141C12.5338 14.4335 12.531 14.4515 12.5269 14.4681L13.3868 14.6773ZM13.4182 14.4707L13.4423 14.094L12.5591 14.0375L12.535 14.4141L13.4182 14.4707ZM13.6166 13.8655C13.7393 13.8422 13.864 13.8236 13.9905 13.8099L13.8949 12.9301C13.7452 12.9463 13.5975 12.9684 13.4519 12.9959L13.6166 13.8655ZM13.9905 13.8099C14.1086 13.7971 14.2262 13.7887 14.3429 13.7847L14.3124 12.9002C14.1739 12.905 14.0347 12.9149 13.8949 12.9301L13.9905 13.8099ZM14.5632 13.9705L14.6681 14.3349L15.5186 14.09L15.4137 13.7256L14.5632 13.9705ZM14.6681 14.3349C14.6866 14.3991 14.7101 14.4607 14.7381 14.5194L15.5369 14.1383C15.5299 14.1237 15.5237 14.1076 15.5186 14.09L14.6681 14.3349ZM15.387 14.9995C15.4651 15.0195 15.5422 15.042 15.6183 15.067L15.8947 14.2263C15.7998 14.1951 15.7037 14.167 15.6063 14.1421L15.387 14.9995ZM16.4235 15.0114C16.4784 14.9772 16.5311 14.9381 16.581 14.8942L15.9964 14.2297C15.9827 14.2418 15.9689 14.2519 15.9552 14.2605L16.4235 15.0114ZM16.581 14.8942L16.8709 14.6392L16.2863 13.9747L15.9964 14.2297L16.581 14.8942ZM17.156 14.6008C17.3567 14.7376 17.5466 14.8897 17.724 15.0556L18.3284 14.4091C18.118 14.2123 17.8926 14.0319 17.6546 13.8696L17.156 14.6008ZM17.7483 15.3429L17.5608 15.682L18.3353 16.1102L18.5228 15.7711L17.7483 15.3429ZM17.5608 15.682C17.5302 15.7375 17.5043 15.7945 17.4832 15.8525L18.3149 16.1549C18.3202 16.1404 18.3269 16.1254 18.3353 16.1102L17.5608 15.682ZM17.6008 16.6587C17.6419 16.7281 17.6809 16.799 17.7174 16.8713L18.5073 16.4722C18.4617 16.382 18.4132 16.2936 18.3619 16.2072L17.6008 16.6587ZM18.3341 17.404C18.3939 17.4173 18.4552 17.4261 18.5179 17.4301L18.5744 16.5469C18.5572 16.5458 18.5411 16.5434 18.5261 16.5401L18.3341 17.404ZM18.5179 17.4301L18.9085 17.4551L18.965 16.5719L18.5744 16.5469L18.5179 17.4301ZM19.1372 17.6299C19.1593 17.7483 19.177 17.8686 19.1903 17.9906L20.0701 17.895C20.0544 17.7507 20.0334 17.6082 20.0072 17.4676L19.1372 17.6299ZM19.1903 17.9906C19.2034 18.1117 19.2119 18.2321 19.2158 18.3517L20.1003 18.3228C20.0957 18.1809 20.0857 18.0383 20.0701 17.895L19.1903 17.9906ZM19.03 18.5716L18.6537 18.68L18.8986 19.5304L19.2749 19.4221L19.03 18.5716ZM18.6537 18.68C18.5937 18.6973 18.536 18.7189 18.4807 18.7445L18.8531 19.5473C18.867 19.5409 18.8821 19.5352 18.8986 19.5304L18.6537 18.68ZM17.9921 19.3977C17.9719 19.4763 17.9492 19.554 17.9239 19.6306L18.7642 19.9081C18.7958 19.8126 18.8242 19.7157 18.8493 19.6177L17.9921 19.3977ZM17.9826 20.4441C18.0156 20.4959 18.0528 20.5456 18.0944 20.5928L18.7588 20.0083C18.7474 19.9953 18.7377 19.9822 18.7295 19.9693L17.9826 20.4441ZM18.0944 20.5928L18.3514 20.885L19.0159 20.3004L18.7588 20.0083L18.0944 20.5928ZM18.3894 21.1708C18.2519 21.3707 18.0993 21.5599 17.9329 21.7366L18.5772 22.3433C18.7746 22.1338 18.9556 21.9093 19.1187 21.6721L18.3894 21.1708ZM17.6462 21.7604L17.3066 21.5727L16.8784 22.3472L17.218 22.5349L17.6462 21.7604ZM17.3066 21.5727C17.2493 21.541 17.1904 21.5144 17.1304 21.493L16.8322 22.3262C16.8472 22.3316 16.8626 22.3385 16.8784 22.3472L17.3066 21.5727ZM16.3297 21.6111C16.2606 21.6519 16.19 21.6906 16.1179 21.7269L16.5162 22.5172C16.6061 22.4719 16.6942 22.4237 16.7803 22.3728L16.3297 21.6111ZM15.5865 22.3375C15.5721 22.3999 15.5627 22.4641 15.5585 22.5297L16.4417 22.5862C16.4428 22.5682 16.4454 22.5515 16.449 22.5359L15.5865 22.3375ZM15.5585 22.5297L15.5341 22.9106L16.4173 22.9671L16.4417 22.5862L15.5585 22.5297ZM15.3588 23.1394C15.2441 23.1605 15.1276 23.1776 15.0096 23.1904L15.1052 24.0702C15.2448 24.0551 15.3828 24.0349 15.5189 24.0098L15.3588 23.1394ZM15.0096 23.1904C14.8833 23.2041 14.7577 23.2127 14.633 23.2164L14.659 24.101C14.8069 24.0967 14.9557 24.0865 15.1052 24.0702L15.0096 23.1904ZM14.4137 23.0306L14.3086 22.6655L13.4581 22.9104L13.5632 23.2755L14.4137 23.0306ZM14.3086 22.6655C14.2893 22.5985 14.2646 22.5343 14.2349 22.4733L13.4389 22.8601C13.4463 22.8753 13.4528 22.892 13.4581 22.9104L14.3086 22.6655ZM13.5911 21.9991C13.5136 21.9792 13.4371 21.9566 13.3615 21.9317L13.0839 22.772C13.1781 22.8032 13.2736 22.8312 13.3703 22.8561L13.5911 21.9991ZM12.5637 21.9825C12.505 22.0182 12.4488 22.0595 12.3957 22.1062L12.9803 22.7707C12.9949 22.7579 13.0095 22.7472 13.0241 22.7383L12.5637 21.9825ZM12.3957 22.1062L12.1161 22.3522L12.7007 23.0166L12.9803 22.7707L12.3957 22.1062ZM11.8304 22.3902C11.6288 22.2516 11.438 22.0976 11.2601 21.9297L10.6527 22.5733C10.8638 22.7726 11.09 22.9552 11.3293 23.1196L11.8304 22.3902ZM11.2364 21.6431L11.4159 21.3184L10.6414 20.8902L10.4619 21.2149L11.2364 21.6431ZM11.4159 21.3184C11.4516 21.2538 11.4808 21.1871 11.5036 21.1192L10.6643 20.8383C10.6587 20.8551 10.6512 20.8725 10.6414 20.8902L11.4159 21.3184ZM11.381 20.3371C11.3408 20.2691 11.3027 20.1995 11.2668 20.1286L10.4769 20.5276C10.5216 20.6161 10.5691 20.7028 10.6192 20.7876L11.381 20.3371ZM10.674 19.6038C10.6044 19.5864 10.5325 19.575 10.4588 19.5703L10.4023 20.4535C10.4225 20.4548 10.4412 20.4578 10.4584 20.4622L10.674 19.6038ZM10.4588 19.5703L10.0919 19.5468L10.0354 20.43L10.4023 20.4535L10.4588 19.5703ZM9.8632 19.3721C9.84097 19.2531 9.8231 19.1323 9.80979 19.0097L8.92996 19.1053C8.94571 19.2503 8.96688 19.3935 8.99325 19.5346L9.8632 19.3721ZM9.80979 19.0097C9.79638 18.8863 9.78786 18.7636 9.78406 18.6418L8.89948 18.6694C8.90399 18.8139 8.9141 18.9593 8.92996 19.1053L9.80979 19.0097ZM9.96987 18.4221L10.323 18.3204L10.0781 17.47L9.72499 17.5716L9.96987 18.4221ZM10.323 18.3204C10.3944 18.2999 10.4625 18.2732 10.527 18.241L10.1314 17.4493C10.1154 17.4573 10.0977 17.4643 10.0781 17.47L10.323 18.3204ZM10.9925 17.6018C11.0123 17.5249 11.0345 17.4488 11.0592 17.3738L10.2185 17.0973C10.1877 17.1909 10.16 17.2857 10.1353 17.3816L10.9925 17.6018ZM11.0115 16.5846C10.9745 16.5226 10.9314 16.4634 10.8824 16.4076L10.2179 16.9921C10.2313 17.0074 10.2425 17.0229 10.2516 17.0382L11.0115 16.5846ZM10.8824 16.4076L10.6384 16.1303L9.9739 16.7148L10.2179 16.9921L10.8824 16.4076ZM10.6 15.8452C10.7379 15.6428 10.8913 15.4514 11.0588 15.2727L10.413 14.6676C10.2143 14.8796 10.0323 15.1067 9.8687 15.3468L10.6 15.8452ZM14.743 20.7722C15.9978 20.6359 16.9046 19.5081 16.7682 18.2532L15.8884 18.3488C15.9719 19.1178 15.4163 19.8088 14.6474 19.8924L14.743 20.7722ZM12.224 18.7469C12.3603 20.0018 13.4881 20.9085 14.743 20.7722L14.6474 19.8924C13.8784 19.9759 13.1874 19.4203 13.1038 18.6513L12.224 18.7469ZM14.2492 16.228C12.9944 16.3643 12.0877 17.4921 12.224 18.7469L13.1038 18.6513C13.0203 17.8824 13.5759 17.1913 14.3448 17.1078L14.2492 16.228ZM16.7682 18.2532C16.6319 16.9984 15.5041 16.0916 14.2492 16.228L14.3448 17.1078C15.1138 17.0243 15.8049 17.5799 15.8884 18.3488L16.7682 18.2532ZM10.6384 16.1303C10.5495 16.0292 10.5541 15.9126 10.6 15.8452L9.8687 15.3468C9.56604 15.7909 9.6539 16.351 9.9739 16.7148L10.6384 16.1303ZM10.527 18.241C10.8413 18.0839 10.949 17.7714 10.9925 17.6018L10.1353 17.3816C10.1294 17.4046 10.1234 17.4236 10.1175 17.4389C10.1115 17.4544 10.1066 17.4638 10.1036 17.4687C10.0981 17.4778 10.1053 17.4623 10.1314 17.4493L10.527 18.241ZM9.78406 18.6418C9.78151 18.5602 9.8404 18.4594 9.96987 18.4221L9.72499 17.5716C9.25884 17.7059 8.8827 18.1314 8.89948 18.6694L9.78406 18.6418ZM10.0919 19.5468C9.95736 19.5382 9.87819 19.4523 9.8632 19.3721L8.99325 19.5346C9.09215 20.0639 9.55106 20.399 10.0354 20.43L10.0919 19.5468ZM11.2668 20.1286C11.1878 19.9721 11.0153 19.6895 10.674 19.6038L10.4584 20.4622C10.4302 20.4551 10.4198 20.4415 10.4271 20.4492C10.4311 20.4533 10.4379 20.4615 10.4471 20.4753C10.4562 20.4891 10.4662 20.5064 10.4769 20.5276L11.2668 20.1286ZM11.5036 21.1192C11.6152 20.7856 11.4702 20.488 11.381 20.3371L10.6192 20.7876C10.6313 20.808 10.6405 20.8257 10.6471 20.8408C10.6538 20.8559 10.657 20.8661 10.6584 20.8717C10.6609 20.8819 10.6551 20.8659 10.6643 20.8383L11.5036 21.1192ZM11.2601 21.9297C11.2007 21.8737 11.1713 21.7608 11.2364 21.6431L10.4619 21.2149C10.2275 21.6388 10.2619 22.2046 10.6527 22.5733L11.2601 21.9297ZM12.1161 22.3522C12.0148 22.4413 11.8978 22.4365 11.8304 22.3902L11.3293 23.1196C11.7736 23.4249 12.3359 23.3376 12.7007 23.0166L12.1161 22.3522ZM15.5341 22.9106C15.5255 23.0454 15.4392 23.1246 15.3588 23.1394L15.5189 24.0098C16.0497 23.9122 16.3862 23.4525 16.4173 22.9671L15.5341 22.9106ZM16.1179 21.7269C15.9577 21.8076 15.6674 21.9857 15.5865 22.3375L16.449 22.5359C16.4423 22.5649 16.4283 22.5758 16.436 22.5683C16.4403 22.5642 16.4487 22.5571 16.4628 22.5477C16.4769 22.5383 16.4946 22.5281 16.5162 22.5172L16.1179 21.7269ZM18.4807 18.7445C18.1504 18.8977 18.0371 19.2225 17.9921 19.3977L18.8493 19.6177C18.8554 19.5941 18.8617 19.5745 18.8679 19.5586C18.8741 19.5426 18.8794 19.5328 18.8825 19.5277C18.8882 19.5185 18.8804 19.5347 18.8531 19.5473L18.4807 18.7445ZM19.2158 18.3517C19.2185 18.4333 19.1596 18.5343 19.03 18.5716L19.2749 19.4221C19.7415 19.2877 20.1179 18.8614 20.1003 18.3228L19.2158 18.3517ZM18.9085 17.4551C19.043 17.4637 19.1222 17.5496 19.1372 17.6299L20.0072 17.4676C19.9085 16.9381 19.4494 16.6029 18.965 16.5719L18.9085 17.4551ZM17.4832 15.8525C17.3589 16.1942 17.5086 16.5033 17.6008 16.6587L18.3619 16.2072C18.3495 16.1862 18.3401 16.1679 18.3332 16.1524C18.3263 16.1367 18.3231 16.1261 18.3217 16.1203C18.3192 16.1098 18.3252 16.1267 18.3149 16.1549L17.4832 15.8525ZM14.2349 22.4733C14.0794 22.1532 13.7626 22.0433 13.5911 21.9991L13.3703 22.8561C13.3935 22.8621 13.4127 22.8682 13.4282 22.8743C13.4439 22.8804 13.4534 22.8854 13.4584 22.8884C13.4675 22.894 13.4518 22.8866 13.4389 22.8601L14.2349 22.4733ZM16.8709 14.6392C16.9719 14.5503 17.0886 14.5548 17.156 14.6008L17.6546 13.8696C17.2105 13.5668 16.6502 13.6546 16.2863 13.9747L16.8709 14.6392ZM14.633 23.2164C14.5515 23.2188 14.4509 23.1599 14.4137 23.0306L13.5632 23.2755C13.6973 23.741 14.1218 24.1168 14.659 24.101L14.633 23.2164ZM15.6183 15.067C15.7883 15.1229 16.1183 15.2018 16.4235 15.0114L15.9552 14.2605C15.9804 14.2447 15.9979 14.2469 15.9872 14.2467C15.9813 14.2466 15.9705 14.2457 15.9538 14.2424C15.9373 14.2391 15.9177 14.2339 15.8947 14.2263L15.6183 15.067ZM14.7381 14.5194C14.893 14.8441 15.2137 14.9552 15.387 14.9995L15.6063 14.1421C15.5829 14.1361 15.5635 14.13 15.5478 14.1239C15.532 14.1177 15.5223 14.1126 15.5173 14.1095C15.5081 14.1039 15.524 14.1115 15.5369 14.1383L14.7381 14.5194ZM17.9329 21.7366C17.8769 21.796 17.764 21.8255 17.6462 21.7604L17.218 22.5349C17.6422 22.7695 18.2085 22.7348 18.5772 22.3433L17.9329 21.7366ZM12.8607 15.2763C13.0183 15.1965 13.303 15.0219 13.3868 14.6773L12.5269 14.4681C12.5338 14.4396 12.5475 14.4291 12.5398 14.4364C12.5356 14.4404 12.5274 14.4474 12.5135 14.4566C12.4996 14.4659 12.4823 14.4759 12.4609 14.4867L12.8607 15.2763ZM14.3429 13.7847C14.4246 13.7819 14.5259 13.8407 14.5632 13.9705L15.4137 13.7256C15.2791 13.2583 14.8518 12.8816 14.3124 12.9002L14.3429 13.7847ZM13.3615 21.9317C13.1933 21.8761 12.8675 21.7974 12.5637 21.9825L13.0241 22.7383C12.999 22.7536 12.9818 22.7514 12.9924 22.7516C12.9982 22.7517 13.009 22.7527 13.0254 22.756C13.0417 22.7593 13.0612 22.7645 13.0839 22.772L13.3615 21.9317ZM17.724 15.0556C17.7837 15.1114 17.8136 15.2247 17.7483 15.3429L18.5228 15.7711C18.758 15.3457 18.7224 14.7775 18.3284 14.4091L17.724 15.0556ZM18.3514 20.885C18.4406 20.9863 18.4357 21.1033 18.3894 21.1708L19.1187 21.6721C19.4241 21.2277 19.3369 20.6653 19.0159 20.3004L18.3514 20.885ZM11.0592 17.3738C11.1139 17.2074 11.1916 16.8862 11.0115 16.5846L10.2516 17.0382C10.2367 17.0132 10.239 16.9963 10.2387 17.0069C10.2385 17.0126 10.2376 17.0232 10.2343 17.0395C10.231 17.0556 10.2259 17.0748 10.2185 17.0973L11.0592 17.3738ZM11.8636 15.5134C12.1993 15.6277 12.4994 15.4813 12.6513 15.3913L12.1998 14.6301C12.1793 14.6422 12.1615 14.6515 12.1463 14.6582C12.131 14.665 12.1207 14.6682 12.1151 14.6696C12.1048 14.6721 12.1211 14.6662 12.1488 14.6757L11.8636 15.5134ZM17.7174 16.8713C17.7989 17.0326 17.9791 17.3251 18.3341 17.404L18.5261 16.5401C18.5555 16.5466 18.5665 16.5607 18.559 16.5529C18.5548 16.5486 18.5477 16.5402 18.5381 16.526C18.5287 16.5118 18.5183 16.494 18.5073 16.4722L17.7174 16.8713ZM17.1304 21.493C16.7906 21.3714 16.4841 21.5197 16.3297 21.6111L16.7803 22.3728C16.8011 22.3604 16.8193 22.3511 16.8347 22.3443C16.8503 22.3374 16.8608 22.3342 16.8665 22.3329C16.877 22.3304 16.8603 22.3363 16.8322 22.3262L17.1304 21.493ZM13.4423 14.094C13.4509 13.9598 13.5365 13.8807 13.6166 13.8655L13.4519 12.9959C12.9239 13.0959 12.5901 13.5541 12.5591 14.0375L13.4423 14.094ZM17.9239 19.6306C17.8672 19.8024 17.7873 20.1369 17.9826 20.4441L18.7295 19.9693C18.7456 19.9946 18.7434 20.0124 18.7436 20.0016C18.7437 19.9957 18.7446 19.9846 18.748 19.9678C18.7513 19.9511 18.7566 19.9312 18.7642 19.9081L17.9239 19.6306ZM11.7741 14.474C11.349 14.2389 10.7814 14.2743 10.413 14.6676L11.0588 15.2727C11.1147 15.213 11.2279 15.1832 11.3459 15.2485L11.7741 14.474Z" fill="white"/>
<path d="M23.9002 16.1042L23.4586 16.0759L23.9002 16.1042ZM23.8751 16.4973L24.3167 16.5256L24.3167 16.5256L23.8751 16.4973ZM22.7827 17.0954L22.9968 16.7081L22.9968 16.7081L22.7827 17.0954ZM22.438 16.9048L22.2239 17.292L22.2239 17.292L22.438 16.9048ZM21.5278 18.0369L21.1955 18.3291L21.1955 18.3291L21.5278 18.0369ZM21.788 18.3326L22.1202 18.0404L22.1202 18.0404L21.788 18.3326ZM21.4384 19.528L21.316 19.1027L21.316 19.1027L21.4384 19.528ZM21.0599 19.637L21.1823 20.0622L21.1823 20.0622L21.0599 19.637ZM21.2168 21.0811L21.1885 21.5227L21.1885 21.5227L21.2168 21.0811ZM21.6099 21.1062L21.5816 21.5478L21.5816 21.5478L21.6099 21.1062ZM22.208 22.1986L22.5952 22.4127L22.5952 22.4127L22.208 22.1986ZM22.0174 22.5433L22.4046 22.7574L22.4046 22.7574L22.0174 22.5433ZM23.1495 23.4535L23.4417 23.7858L23.4417 23.7858L23.1495 23.4535ZM23.4452 23.1933L23.1529 22.8611L23.1529 22.8611L23.4452 23.1933ZM24.6405 23.5429L24.2153 23.6653L24.6405 23.5429ZM24.7495 23.9214L25.1748 23.799L24.7495 23.9214ZM26.1936 23.7645L26.6352 23.7928L26.1936 23.7645ZM26.2188 23.3714L26.6604 23.3996L26.2188 23.3714ZM27.3112 22.7733L27.0971 23.1606L27.0971 23.1606L27.3112 22.7733ZM27.6559 22.9639L27.87 22.5766L27.87 22.5766L27.6559 22.9639ZM28.5661 21.8318L28.2339 22.1241L28.5661 21.8318ZM28.3059 21.5361L27.9737 21.8283L27.9737 21.8283L28.3059 21.5361ZM28.6554 20.3407L28.533 19.9155L28.6554 20.3407ZM29.034 20.2317L28.9115 19.8065L28.9115 19.8065L29.034 20.2317ZM28.8771 18.7876L28.8488 19.2292L28.8488 19.2292L28.8771 18.7876ZM28.484 18.7625L28.4557 19.2041L28.4557 19.2041L28.484 18.7625ZM27.8859 17.6701L27.4986 17.456L27.4986 17.456L27.8859 17.6701ZM28.0765 17.3254L28.4638 17.5395L28.4638 17.5395L28.0765 17.3254ZM26.9444 16.4152L26.6521 16.0829L26.6521 16.0829L26.9444 16.4152ZM26.6487 16.6754L26.3564 16.3431L26.3564 16.3431L26.6487 16.6754ZM25.4533 16.3258L25.8786 16.2034L25.8786 16.2034L25.4533 16.3258ZM25.3443 15.9473L24.9191 16.0697L24.9191 16.0697L25.3443 15.9473ZM25.171 15.6356L24.8487 15.9388L25.171 15.6356ZM24.8127 15.5177L24.7885 15.0758L24.8127 15.5177ZM25.8695 16.7186L25.7603 17.1474L25.8695 16.7186ZM25.5423 16.5229L25.1701 16.7622L25.5423 16.5229ZM29.3547 20.0498L29.0457 19.733L29.3547 20.0498ZM29.4677 19.6974L29.0259 19.7215L29.4677 19.6974ZM28.2658 20.7557L27.8371 20.6461L28.2658 20.7557ZM28.4661 20.4248L28.2315 20.0497L28.4661 20.4248ZM28.1913 21.3623L27.7913 21.5515L28.1913 21.3623ZM28.2013 20.9758L28.6213 21.115L28.2013 20.9758ZM28.6434 22.5148L28.2841 22.2566L28.6434 22.5148ZM28.7378 22.1559L28.3072 22.2576L28.7378 22.1559ZM28.0084 23.062L28.001 23.5044L28.0084 23.062ZM28.3389 22.8931L28.0099 22.5973L28.3389 22.8931ZM26.2626 23.1618L25.8473 23.0093L26.2626 23.1618ZM26.5409 22.8991L26.7397 23.2945L26.5409 22.8991ZM24.9243 24.2346L25.2457 23.9304L24.9243 24.2346ZM25.2808 24.3518L25.3042 24.7937L25.2808 24.3518ZM24.225 23.1481L24.3352 22.7196L24.225 23.1481ZM23.6336 23.072L23.8138 23.4761L23.6336 23.072ZM24.0095 23.0848L23.8704 23.5049L24.0095 23.0848ZM22.4725 23.5285L22.7305 23.1691L22.4725 23.5285ZM22.8407 23.6214L22.9521 24.0497L22.8407 23.6214ZM22.2873 21.9822L21.8531 21.8969L22.2873 21.9822ZM21.8351 21.156L21.9973 20.7443L21.8351 21.156ZM22.0878 21.428L21.6927 21.6273L22.0878 21.428ZM20.8838 20.9838L20.6624 21.367L20.8838 20.9838ZM25.7661 24.2996L25.8373 24.7363L25.7661 24.2996ZM26.0895 24.1093L26.4682 24.3382L26.0895 24.1093ZM28.1746 16.9744L27.7321 16.966L28.1746 16.9744ZM21.8985 18.8981L21.4783 18.7597L21.8985 18.8981ZM28.0141 18.441L28.4092 18.2418L28.0141 18.441ZM26.4683 16.7931L26.6535 17.195L26.4683 16.7931ZM20.7557 19.8033L20.4573 19.4765L20.7557 19.8033ZM20.6336 20.1655L20.1917 20.189L20.6336 20.1655ZM29.4154 19.2162L29.8521 19.1447L29.4154 19.2162ZM23.3577 17.0806L23.5837 17.461L23.3577 17.0806ZM22.9948 17.1739L22.9069 17.6076L22.9948 17.1739ZM27.9039 18.2401L28.2842 18.0139L27.9039 18.2401ZM27.811 17.8653L28.2425 17.9636L27.811 17.8653ZM23.8276 16.7166L24.2407 16.8752L23.8276 16.7166ZM23.5539 16.9728L23.3542 16.5779L23.5539 16.9728ZM21.6483 19.4305L21.8955 19.7975L21.6483 19.4305ZM22.089 23.2197L21.7928 23.5485L22.089 23.2197ZM24.326 15.571L24.2539 15.1345L24.326 15.571ZM24.3418 16.1325C24.346 16.0679 24.3629 16.0224 24.3822 15.9899L23.6213 15.5378C23.5276 15.6955 23.4713 15.8775 23.4586 16.0759L24.3418 16.1325ZM24.3167 16.5256L24.3418 16.1325L23.4586 16.0759L23.4335 16.469L24.3167 16.5256ZM24.2407 16.8752C24.2827 16.7657 24.3088 16.6483 24.3167 16.5256L23.4335 16.469C23.4313 16.5024 23.4244 16.532 23.4144 16.5581L24.2407 16.8752ZM23.5837 17.461C23.6391 17.4281 23.6958 17.3969 23.7536 17.3677L23.3542 16.5779C23.2785 16.6162 23.2043 16.657 23.1317 16.7001L23.5837 17.461ZM22.5686 17.4826C22.6771 17.5426 22.7911 17.5841 22.9069 17.6076L23.0827 16.7402C23.0552 16.7346 23.0263 16.7244 22.9968 16.7081L22.5686 17.4826ZM22.2239 17.292L22.5686 17.4826L22.9968 16.7081L22.6521 16.5175L22.2239 17.292ZM22.0844 17.2493C22.1216 17.2509 22.1683 17.2613 22.2239 17.292L22.6521 16.5175C22.4815 16.4232 22.3016 16.3727 22.1217 16.3651L22.0844 17.2493ZM21.8127 17.6192C21.899 17.4987 21.9919 17.383 22.091 17.2727L21.4327 16.6812C21.3117 16.8158 21.1983 16.957 21.093 17.1042L21.8127 17.6192ZM21.86 17.7446C21.8182 17.6971 21.798 17.6538 21.7884 17.6179L20.9331 17.8454C20.9793 18.0189 21.0672 18.1832 21.1955 18.3291L21.86 17.7446ZM22.1202 18.0404L21.86 17.7446L21.1955 18.3291L21.4557 18.6249L22.1202 18.0404ZM22.3183 18.3519C22.2702 18.2409 22.2041 18.1358 22.1202 18.0404L21.4557 18.6249C21.4785 18.6508 21.4949 18.6775 21.5063 18.7039L22.3183 18.3519ZM22.2649 19.2209C22.2809 19.1587 22.2989 19.0972 22.3188 19.0366L21.4783 18.7597C21.4521 18.8392 21.4285 18.9197 21.4076 19.0012L22.2649 19.2209ZM21.5609 19.9532C21.6829 19.918 21.7952 19.8651 21.8955 19.7975L21.4012 19.0635C21.3773 19.0795 21.3492 19.0932 21.316 19.1027L21.5609 19.9532ZM21.1823 20.0622L21.5609 19.9532L21.316 19.1027L20.9374 19.2117L21.1823 20.0622ZM21.0541 20.1301C21.0815 20.105 21.1217 20.0796 21.1823 20.0622L20.9374 19.2117C20.7515 19.2653 20.5895 19.3559 20.4573 19.4765L21.0541 20.1301ZM21.0934 20.3645C21.0854 20.29 21.0794 20.2159 21.0754 20.142L20.1917 20.189C20.1965 20.2791 20.2038 20.3695 20.2136 20.4601L21.0934 20.3645ZM21.1234 20.5844C21.1115 20.5118 21.1015 20.4385 21.0934 20.3645L20.2136 20.4601C20.2234 20.5502 20.2356 20.6395 20.2502 20.728L21.1234 20.5844ZM21.245 20.6395C21.1821 20.6354 21.1373 20.6192 21.1051 20.6007L20.6624 21.367C20.8174 21.4565 20.9952 21.5103 21.1885 21.5227L21.245 20.6395ZM21.6382 20.6646L21.245 20.6395L21.1885 21.5227L21.5816 21.5478L21.6382 20.6646ZM21.9973 20.7443C21.8852 20.7001 21.7645 20.6727 21.6382 20.6646L21.5816 21.5478C21.616 21.55 21.6463 21.5572 21.673 21.5677L21.9973 20.7443ZM22.5752 21.3975C22.5426 21.3424 22.5118 21.2862 22.4829 21.2288L21.6927 21.6273C21.7306 21.7025 21.771 21.7762 21.8136 21.8483L22.5752 21.3975ZM22.5952 22.4127C22.6564 22.302 22.6983 22.1856 22.7215 22.0675L21.8531 21.8969C21.8476 21.925 21.8374 21.9544 21.8207 21.9845L22.5952 22.4127ZM22.4046 22.7574L22.5952 22.4127L21.8207 21.9845L21.6301 22.3292L22.4046 22.7574ZM22.3619 22.8974C22.3634 22.8601 22.3738 22.8132 22.4046 22.7574L21.6301 22.3292C21.5354 22.5005 21.4848 22.6813 21.4776 22.8619L22.3619 22.8974ZM22.7305 23.1691C22.6104 23.0828 22.4951 22.99 22.3852 22.891L21.7928 23.5485C21.9269 23.6693 22.0677 23.7827 22.2144 23.888L22.7305 23.1691ZM22.8572 23.1213C22.8091 23.1635 22.7655 23.1838 22.7292 23.1932L22.9521 24.0497C23.1278 24.0039 23.2942 23.9156 23.4417 23.7858L22.8572 23.1213ZM23.1529 22.8611L22.8572 23.1213L23.4417 23.7858L23.7375 23.5256L23.1529 22.8611ZM23.4535 22.6678C23.3465 22.7155 23.2452 22.78 23.1529 22.8611L23.7375 23.5256C23.7626 23.5035 23.7883 23.4875 23.8138 23.4761L23.4535 22.6678ZM24.3352 22.7196C24.2722 22.7034 24.21 22.6851 24.1487 22.6648L23.8704 23.5049C23.9508 23.5315 24.0323 23.5555 24.1148 23.5767L24.3352 22.7196ZM25.0658 23.4204C25.0321 23.3034 24.982 23.1954 24.9184 23.0982L24.1781 23.5831C24.1932 23.6063 24.2062 23.6335 24.2153 23.6653L25.0658 23.4204ZM25.1748 23.799L25.0658 23.4204L24.2153 23.6653L24.3243 24.0438L25.1748 23.799ZM25.2457 23.9304C25.2195 23.9028 25.1929 23.8618 25.1748 23.799L24.3243 24.0438C24.3799 24.237 24.4755 24.4042 24.6029 24.5388L25.2457 23.9304ZM25.4808 23.8919C25.406 23.9 25.3315 23.906 25.2574 23.91L25.3042 24.7937C25.3946 24.7889 25.4853 24.7816 25.5764 24.7717L25.4808 23.8919ZM25.6949 23.8629C25.6243 23.8744 25.5529 23.8841 25.4808 23.8919L25.5764 24.7717C25.6641 24.7622 25.7511 24.7504 25.8373 24.7363L25.6949 23.8629ZM25.752 23.7362C25.7478 23.8017 25.7305 23.8477 25.7108 23.8804L26.4682 24.3382C26.5644 24.1789 26.6223 23.9943 26.6352 23.7928L25.752 23.7362ZM25.7772 23.3431L25.752 23.7362L26.6352 23.7928L26.6604 23.3996L25.7772 23.3431ZM25.8473 23.0093C25.8087 23.1143 25.7847 23.2263 25.7772 23.3431L26.6604 23.3996C26.6624 23.3678 26.6688 23.3395 26.678 23.3144L25.8473 23.0093ZM26.515 22.4093C26.4586 22.4427 26.401 22.4742 26.3422 22.5038L26.7397 23.2945C26.8168 23.2557 26.8923 23.2144 26.9661 23.1707L26.515 22.4093ZM27.5253 22.3861C27.4232 22.3296 27.3163 22.2896 27.2075 22.2655L27.0161 23.1296C27.0421 23.1353 27.0693 23.1452 27.0971 23.1606L27.5253 22.3861ZM27.87 22.5766L27.5253 22.3861L27.0971 23.1606L27.4418 23.3512L27.87 22.5766ZM28.0158 22.6196C27.9772 22.6189 27.9284 22.6089 27.87 22.5766L27.4418 23.3512C27.6217 23.4506 27.8118 23.5013 28.001 23.5044L28.0158 22.6196ZM28.2841 22.2566C28.199 22.375 28.1074 22.4888 28.0099 22.5973L28.668 23.189C28.787 23.0566 28.8988 22.9177 29.0028 22.7731L28.2841 22.2566ZM28.2339 22.1241C28.278 22.1743 28.2983 22.2199 28.3072 22.2576L29.1685 22.0543C29.1249 21.8697 29.0345 21.6944 28.8983 21.5396L28.2339 22.1241ZM27.9737 21.8283L28.2339 22.1241L28.8983 21.5396L28.6382 21.2438L27.9737 21.8283ZM27.7913 21.5515C27.8377 21.6498 27.8986 21.743 27.9737 21.8283L28.6382 21.2438C28.6177 21.2205 28.6025 21.1968 28.5913 21.1732L27.7913 21.5515ZM27.8371 20.6461C27.8206 20.7104 27.802 20.774 27.7812 20.8367L28.6213 21.115C28.6485 21.0329 28.673 20.9496 28.6945 20.8653L27.8371 20.6461ZM28.533 19.9155C28.4243 19.9468 28.3232 19.9923 28.2315 20.0497L28.7007 20.8C28.7227 20.7863 28.7482 20.7745 28.7779 20.766L28.533 19.9155ZM28.9115 19.8065L28.533 19.9155L28.7779 20.766L29.1564 20.657L28.9115 19.8065ZM29.0457 19.733C29.0179 19.7602 28.9762 19.7879 28.9115 19.8065L29.1564 20.657C29.3557 20.5996 29.5272 20.4997 29.6637 20.3665L29.0457 19.733ZM29.0082 19.5046C29.0161 19.5772 29.022 19.6495 29.0259 19.7215L29.9096 19.6733C29.9048 19.5855 29.8976 19.4974 29.888 19.409L29.0082 19.5046ZM28.9787 19.2877C28.9904 19.3592 29.0002 19.4316 29.0082 19.5046L29.888 19.409C29.8784 19.3201 29.8664 19.232 29.8521 19.1447L28.9787 19.2877ZM28.8488 19.2292C28.9159 19.2335 28.9626 19.2516 28.9956 19.2721L29.4628 18.5205C29.3009 18.4199 29.1122 18.3593 28.9053 18.346L28.8488 19.2292ZM28.4557 19.2041L28.8488 19.2292L28.9054 18.346L28.5122 18.3209L28.4557 19.2041ZM28.1313 19.1374C28.2336 19.174 28.3424 19.1968 28.4557 19.2041L28.5122 18.3209C28.4813 18.3189 28.4538 18.3129 28.4293 18.3041L28.1313 19.1374ZM27.5235 18.4662C27.5572 18.5229 27.5891 18.5809 27.6189 18.6402L28.4092 18.2418C28.3701 18.1641 28.3284 18.0882 28.2842 18.0139L27.5235 18.4662ZM27.4986 17.456C27.4434 17.556 27.4038 17.6606 27.3796 17.7671L28.2425 17.9636C28.2483 17.9381 28.2581 17.9115 28.2732 17.8842L27.4986 17.456ZM27.6892 17.1113L27.4986 17.456L28.2732 17.8842L28.4638 17.5395L27.6892 17.1113ZM27.7321 16.966C27.7314 17.0045 27.7214 17.0531 27.6892 17.1113L28.4638 17.5395C28.5628 17.3603 28.6134 17.1711 28.617 16.9827L27.7321 16.966ZM27.3678 16.6977C27.4867 16.7828 27.6008 16.8744 27.7097 16.9721L28.3006 16.3132C28.1677 16.194 28.0283 16.0822 27.8832 15.9782L27.3678 16.6977ZM27.2367 16.7474C27.2864 16.7037 27.3315 16.6835 27.3689 16.6744L27.1609 15.8142C26.9784 15.8583 26.8052 15.9483 26.6521 16.0829L27.2367 16.7474ZM26.9409 17.0076L27.2367 16.7474L26.6521 16.0829L26.3564 16.3431L26.9409 17.0076ZM26.6535 17.195C26.7557 17.1479 26.8525 17.0854 26.9409 17.0076L26.3564 16.3431C26.3323 16.3643 26.3076 16.3799 26.2832 16.3911L26.6535 17.195ZM25.7603 17.1474C25.8239 17.1636 25.8868 17.182 25.9488 17.2024L26.2258 16.3619C26.1446 16.3351 26.0622 16.311 25.9788 16.2898L25.7603 17.1474ZM25.0281 16.4483C25.0608 16.5619 25.109 16.6672 25.1701 16.7622L25.9145 16.2836C25.8999 16.2609 25.8875 16.2344 25.8786 16.2034L25.0281 16.4483ZM24.9191 16.0697L25.0281 16.4483L25.8786 16.2034L25.7696 15.8249L24.9191 16.0697ZM24.8487 15.9388C24.8747 15.9664 24.9011 16.0073 24.9191 16.0697L25.7696 15.8249C25.7143 15.6329 25.6196 15.4666 25.4933 15.3324L24.8487 15.9388ZM24.6209 15.9772C24.6932 15.9693 24.7652 15.9635 24.8369 15.9595L24.7885 15.0758C24.7011 15.0806 24.6133 15.0878 24.5253 15.0974L24.6209 15.9772ZM24.3981 16.0076C24.4716 15.9955 24.5458 15.9853 24.6209 15.9772L24.5253 15.0974C24.434 15.1073 24.3435 15.1197 24.2539 15.1345L24.3981 16.0076ZM25.2578 21.8402C26.3103 21.7259 27.0708 20.78 26.9565 19.7275L26.0766 19.8231C26.1382 20.3897 25.7288 20.8989 25.1622 20.9604L25.2578 21.8402ZM23.1451 20.1416C23.2595 21.1941 24.2054 21.9546 25.2578 21.8402L25.1622 20.9604C24.5957 21.022 24.0865 20.6126 24.0249 20.046L23.1451 20.1416ZM24.8437 18.0289C23.7913 18.1432 23.0308 19.0891 23.1451 20.1416L24.0249 20.046C23.9634 19.4795 24.3728 18.9703 24.9393 18.9087L24.8437 18.0289ZM26.9565 19.7275C26.8421 18.675 25.8962 17.9145 24.8437 18.0289L24.9393 18.9087C25.5059 18.8472 26.0151 19.2565 26.0766 19.8231L26.9565 19.7275ZM25.4933 15.3324C25.2769 15.1023 24.985 15.0651 24.7885 15.0758L24.8369 15.9595C24.8496 15.9588 24.8601 15.9592 24.8681 15.9599C24.8762 15.9607 24.8805 15.9619 24.8813 15.9621C24.882 15.9623 24.8784 15.9614 24.872 15.9576C24.8654 15.9537 24.857 15.9476 24.8487 15.9388L25.4933 15.3324ZM25.9788 16.2898C25.9569 16.2842 25.9391 16.2788 25.9247 16.2736C25.9103 16.2684 25.9013 16.2642 25.8964 16.2615C25.887 16.2564 25.9004 16.2616 25.9145 16.2836L25.1701 16.7622C25.338 17.0233 25.6135 17.11 25.7603 17.1474L25.9788 16.2898ZM29.6637 20.3665C29.8849 20.1508 29.9201 19.8658 29.9096 19.6733L29.0259 19.7215C29.0266 19.734 29.0263 19.7442 29.0255 19.7521C29.0248 19.7601 29.0237 19.7642 29.0234 19.765C29.0232 19.7658 29.0241 19.7623 29.0277 19.7561C29.0314 19.7496 29.0372 19.7413 29.0457 19.733L29.6637 20.3665ZM28.6945 20.8653C28.7002 20.8431 28.7057 20.8251 28.711 20.8105C28.7163 20.7958 28.7207 20.7867 28.7234 20.7818C28.7286 20.7723 28.7232 20.7859 28.7007 20.8L28.2315 20.0497C27.964 20.217 27.8752 20.4972 27.8371 20.6461L28.6945 20.8653ZM28.5913 21.1732C28.6027 21.1972 28.5999 21.2116 28.6006 21.2008C28.601 21.1952 28.6022 21.1852 28.6056 21.17C28.609 21.1548 28.6141 21.1367 28.6213 21.115L27.7812 20.8367C27.7329 20.9826 27.6565 21.2664 27.7913 21.5515L28.5913 21.1732ZM29.0028 22.7731C29.1156 22.616 29.2397 22.3559 29.1685 22.0543L28.3072 22.2576C28.3044 22.246 28.3039 22.2359 28.3043 22.2284C28.3046 22.2212 28.3057 22.2178 28.3055 22.2185C28.3053 22.2193 28.304 22.2234 28.3003 22.2305C28.2967 22.2376 28.2914 22.2464 28.2841 22.2566L29.0028 22.7731ZM28.001 23.5044C28.311 23.5096 28.5386 23.3328 28.668 23.189L28.0099 22.5973C28.0015 22.6066 27.994 22.6136 27.9878 22.6187C27.9817 22.6237 27.978 22.6259 27.9772 22.6263C27.9766 22.6267 27.9797 22.6249 27.9866 22.623C27.9939 22.621 28.0039 22.6194 28.0158 22.6196L28.001 23.5044ZM26.678 23.3144C26.669 23.3391 26.657 23.347 26.6651 23.34C26.6693 23.3364 26.6771 23.3302 26.6902 23.322C26.7032 23.3138 26.7194 23.3047 26.7397 23.2945L26.3422 22.5038C26.2063 22.5721 25.9548 22.7167 25.8473 23.0093L26.678 23.3144ZM24.6029 24.5388C24.8188 24.7669 25.1088 24.8041 25.3042 24.7937L25.2574 23.91C25.2448 23.9106 25.2344 23.9103 25.2263 23.9095C25.2183 23.9087 25.2141 23.9076 25.2133 23.9073C25.2126 23.9071 25.2161 23.9081 25.2225 23.9118C25.2291 23.9156 25.2374 23.9217 25.2457 23.9304L24.6029 24.5388ZM24.1148 23.5767C24.1364 23.5823 24.1539 23.5876 24.1681 23.5927C24.1823 23.5979 24.1911 23.6021 24.1959 23.6047C24.2052 23.6097 24.1922 23.6047 24.1781 23.5831L24.9184 23.0982C24.7508 22.8424 24.4799 22.7568 24.3352 22.7196L24.1148 23.5767ZM23.8138 23.4761C23.7903 23.4866 23.7766 23.4838 23.7871 23.4846C23.7926 23.485 23.8023 23.4862 23.817 23.4896C23.8317 23.4929 23.8493 23.4979 23.8704 23.5049L24.1487 22.6648C24.0067 22.6178 23.7327 22.5433 23.4535 22.6678L23.8138 23.4761ZM22.2144 23.888C22.3754 24.0036 22.644 24.1299 22.9521 24.0497L22.7292 23.1932C22.7409 23.1901 22.7514 23.1894 22.7592 23.1897C22.7666 23.1899 22.7703 23.191 22.7695 23.1908C22.7687 23.1906 22.7645 23.1893 22.7572 23.1856C22.7499 23.1819 22.7409 23.1765 22.7305 23.1691L22.2144 23.888ZM21.8136 21.8483C21.8248 21.8672 21.8333 21.8831 21.8397 21.8965C21.846 21.91 21.8493 21.919 21.8508 21.9242C21.8538 21.9342 21.8482 21.9217 21.8531 21.8969L22.7215 22.0675C22.7796 21.772 22.6503 21.5244 22.5752 21.3975L21.8136 21.8483ZM21.673 21.5677C21.6494 21.5585 21.6419 21.547 21.6487 21.5549C21.6522 21.559 21.6581 21.5667 21.666 21.5793C21.6739 21.5919 21.6827 21.6076 21.6927 21.6273L22.4829 21.2288C22.4165 21.0971 22.2776 20.8547 21.9973 20.7443L21.673 21.5677ZM20.2502 20.728C20.2826 20.925 20.3845 21.2064 20.6624 21.367L21.1051 20.6007C21.1157 20.6068 21.1238 20.6137 21.1292 20.6194C21.1343 20.6249 21.1362 20.6283 21.1358 20.6276C21.1354 20.6269 21.1333 20.623 21.1307 20.6151C21.1281 20.6073 21.1255 20.597 21.1234 20.5844L20.2502 20.728ZM25.8373 24.7363C26.0304 24.7049 26.3057 24.6069 26.4682 24.3382L25.7108 23.8804C25.717 23.8701 25.7238 23.8624 25.7295 23.8572C25.7348 23.8523 25.7381 23.8505 25.7375 23.8509C25.7367 23.8513 25.7329 23.8533 25.7252 23.8558C25.7175 23.8583 25.7074 23.8608 25.6949 23.8629L25.8373 24.7363ZM28.617 16.9827C28.6229 16.6715 28.4451 16.4429 28.3006 16.3132L27.7097 16.9721C27.719 16.9804 27.7261 16.988 27.7312 16.9941C27.7363 17.0003 27.7385 17.004 27.7389 17.0048C27.7392 17.0055 27.7374 17.0023 27.7355 16.9953C27.7336 16.988 27.7319 16.9779 27.7321 16.966L28.617 16.9827ZM21.5063 18.7039C21.4963 18.6807 21.4991 18.6673 21.4983 18.6777C21.4978 18.6831 21.4966 18.6926 21.4933 18.7071C21.49 18.7215 21.4851 18.7388 21.4783 18.7597L22.3188 19.0366C22.3649 18.8967 22.4379 18.6277 22.3183 18.3519L21.5063 18.7039ZM28.4293 18.3041C28.4543 18.313 28.4624 18.3251 28.4553 18.317C28.4516 18.3128 28.4454 18.3049 28.437 18.2917C28.4287 18.2786 28.4195 18.2622 28.4092 18.2418L27.6189 18.6402C27.688 18.7772 27.8347 19.0314 28.1313 19.1374L28.4293 18.3041ZM22.1217 16.3651C21.8022 16.3516 21.5657 16.5332 21.4327 16.6812L22.091 17.2727C22.0995 17.2633 22.1072 17.256 22.1136 17.2508C22.1199 17.2456 22.1238 17.2435 22.1245 17.2431C22.1252 17.2427 22.1219 17.2446 22.1146 17.2464C22.107 17.2483 22.0965 17.2498 22.0844 17.2493L22.1217 16.3651ZM26.9661 23.1707C26.9856 23.1591 27.002 23.1504 27.0159 23.1439C27.0299 23.1373 27.0393 23.134 27.0446 23.1325C27.0549 23.1295 27.0417 23.1352 27.0161 23.1296L27.2075 22.2655C26.9032 22.1981 26.6458 22.3318 26.515 22.4093L26.9661 23.1707ZM26.2832 16.3911C26.3069 16.3802 26.321 16.383 26.3103 16.3823C26.3048 16.3819 26.295 16.3807 26.28 16.3773C26.2651 16.3739 26.2472 16.3689 26.2258 16.3619L25.9488 17.2024C26.0928 17.2498 26.3716 17.3248 26.6535 17.195L26.2832 16.3911ZM20.4573 19.4765C20.2203 19.6929 20.1811 19.9897 20.1917 20.189L21.0754 20.142C21.0748 20.1293 21.0751 20.1186 21.076 20.1105C21.0768 20.1022 21.078 20.098 21.0782 20.0971C21.0785 20.0964 21.0774 20.1001 21.0735 20.1066C21.0695 20.1134 21.0631 20.1218 21.0541 20.1301L20.4573 19.4765ZM29.8521 19.1447C29.8209 18.9545 29.7253 18.6837 29.4628 18.5205L28.9956 19.2721C28.9855 19.2659 28.978 19.2591 28.973 19.2535C28.9682 19.2482 28.9666 19.245 28.9669 19.2457C28.9673 19.2464 28.9693 19.2502 28.9717 19.2578C28.9742 19.2654 28.9767 19.2754 28.9787 19.2877L29.8521 19.1447ZM23.1317 16.7001C23.1126 16.7115 23.0966 16.7201 23.083 16.7265C23.0694 16.7329 23.0602 16.7362 23.055 16.7377C23.045 16.7408 23.0577 16.7351 23.0827 16.7402L22.9069 17.6076C23.2052 17.668 23.4557 17.537 23.5837 17.461L23.1317 16.7001ZM28.2842 18.0139C28.2725 17.9943 28.2637 17.9777 28.2571 17.9637C28.2505 17.9496 28.2471 17.9401 28.2456 17.9347C28.2426 17.9243 28.2484 17.9377 28.2425 17.9636L27.3796 17.7671C27.3097 18.0741 27.4451 18.3343 27.5235 18.4662L28.2842 18.0139ZM21.093 17.1042C20.9772 17.2661 20.8509 17.5363 20.9331 17.8454L21.7884 17.6179C21.7915 17.6296 21.7923 17.6402 21.7921 17.648C21.7919 17.6555 21.7908 17.6592 21.791 17.6584C21.7912 17.6576 21.7925 17.6534 21.7962 17.646C21.7999 17.6387 21.8053 17.6296 21.8127 17.6192L21.093 17.1042ZM23.4144 16.5581C23.4236 16.5342 23.4352 16.5265 23.4272 16.5334C23.4231 16.5369 23.4154 16.5429 23.4027 16.5509C23.39 16.559 23.3741 16.5679 23.3542 16.5779L23.7536 17.3677C23.8865 17.3005 24.1316 17.1595 24.2407 16.8752L23.4144 16.5581ZM27.8832 15.9782C27.7253 15.8651 27.4636 15.741 27.1609 15.8142L27.3689 16.6744C27.3573 16.6772 27.3471 16.6778 27.3395 16.6775C27.3323 16.6771 27.3288 16.676 27.3296 16.6763C27.3304 16.6765 27.3345 16.6778 27.3416 16.6814C27.3487 16.6851 27.3576 16.6904 27.3678 16.6977L27.8832 15.9782ZM21.4076 19.0012C21.4022 19.0225 21.3969 19.0397 21.3919 19.0537C21.3869 19.0677 21.3828 19.0764 21.3803 19.0812C21.3753 19.0904 21.3802 19.0776 21.4012 19.0635L21.8955 19.7975C22.1449 19.6296 22.2284 19.3635 22.2649 19.2209L21.4076 19.0012ZM21.4776 22.8619C21.4648 23.1802 21.6455 23.4157 21.7928 23.5485L22.3852 22.891C22.3757 22.8824 22.3685 22.8747 22.3634 22.8684C22.3582 22.862 22.356 22.8582 22.3556 22.8575C22.3553 22.8568 22.3571 22.8601 22.359 22.8673C22.3609 22.8749 22.3624 22.8853 22.3619 22.8974L21.4776 22.8619ZM24.3822 15.9899C24.376 16.0003 24.3691 16.0081 24.3635 16.0134C24.3581 16.0184 24.3548 16.0201 24.3554 16.0198C24.3562 16.0194 24.36 16.0173 24.3678 16.0148C24.3755 16.0123 24.3856 16.0097 24.3981 16.0076L24.2539 15.1345C24.0597 15.1665 23.7828 15.2662 23.6213 15.5378L24.3822 15.9899Z" fill="white"/>
</svg>
