<svg width="40" height="40" viewBox="0 0 40 40" fill="none" xmlns="http://www.w3.org/2000/svg">
<path d="M13.1309 28.32C13.1309 28.32 12.8614 27.2309 11.8875 23.68L10.6441 18.8725L10.5024 18.72V23.217C10.483 25.1794 10.4887 26.88 10.4887 26.88L9.08984 26.08V20.48V14.4L10.3332 13.76C10.3332 13.76 11.0772 15.6786 11.5575 17.2015L12.6646 20.16V12.0904L14.2188 11.2C14.2188 11.2 14.3743 15.3142 14.3743 20.16V28.96L13.1309 28.32Z" fill="white"/>
<path d="M22.4734 8.88839C24.9488 10.3087 25.0985 10.4 25.0985 10.4L24.3214 11.52L19.9695 9.12004L17.6382 10.56L17.7662 14.7368V18.8725H23.8531V20.9612H20.8097H17.7662L17.6382 31.04L15.9401 29.92V19.36V9.93275L17.7662 8.80484C18.7807 8.17822 19.9695 7.52004 19.9695 7.52004C19.9695 7.52004 21.2966 8.17822 22.4734 8.88839Z" fill="white"/>
<path d="M31.4709 14.24V15.84L29.1395 14.56V27.2L27.5053 28V21.2119V13.44L25.2539 12.16L26.031 11.04L31.4709 14.24Z" fill="white"/>
<path d="M20 5L6.5 12.5V27.7822L20 35.5L33.5 27.7822V12.5L20 5Z" stroke="white"/>
<circle cx="6" cy="9" r="5" fill="#C3CBDA"/>
<path d="M5.7243 5.55959C5.81638 5.34723 6.11753 5.34723 6.20961 5.55959L6.98209 7.34098C7.02041 7.42936 7.10376 7.48992 7.19965 7.49905L9.13257 7.68324C9.36298 7.7052 9.45604 7.9916 9.28254 8.1448L7.82704 9.42995C7.75483 9.49371 7.72299 9.59169 7.74394 9.68571L8.16607 11.5809C8.21639 11.8069 7.97276 11.9839 7.77344 11.8662L6.10142 10.8791C6.01846 10.8301 5.91544 10.8301 5.83249 10.8791L4.16047 11.8662C3.96115 11.9839 3.71752 11.8069 3.76784 11.5809L4.18997 9.68571C4.21092 9.59169 4.17908 9.49371 4.10687 9.42995L2.65137 8.1448C2.47787 7.9916 2.57093 7.7052 2.80134 7.68324L4.73426 7.49905C4.83015 7.48992 4.9135 7.42936 4.95182 7.34098L5.7243 5.55959Z" fill="#191919" stroke="#C3CBDA" stroke-width="0.176325"/>
</svg>
