<svg width="40" height="40" viewBox="0 0 40 40" fill="none" xmlns="http://www.w3.org/2000/svg">
<path d="M13.1309 28.32C13.1309 28.32 12.8614 27.2309 11.8875 23.68L10.6441 18.8725L10.5024 18.72V23.217C10.483 25.1794 10.4887 26.88 10.4887 26.88L9.08984 26.08V20.48V14.4L10.3332 13.76C10.3332 13.76 11.0772 15.6786 11.5575 17.2015L12.6646 20.16V12.0904L14.2188 11.2C14.2188 11.2 14.3743 15.3142 14.3743 20.16V28.96L13.1309 28.32Z" fill="white"/>
<path d="M22.4734 8.88839C24.9488 10.3087 25.0985 10.4 25.0985 10.4L24.3214 11.52L19.9695 9.12004L17.6382 10.56L17.7662 14.7368V18.8725H23.8531V20.9612H20.8097H17.7662L17.6382 31.04L15.9401 29.92V19.36V9.93275L17.7662 8.80484C18.7807 8.17822 19.9695 7.52004 19.9695 7.52004C19.9695 7.52004 21.2966 8.17822 22.4734 8.88839Z" fill="white"/>
<path d="M31.4709 14.24V15.84L29.1395 14.56V27.2L27.5053 28V21.2119V13.44L25.2539 12.16L26.031 11.04L31.4709 14.24Z" fill="white"/>
<path d="M20 5L6.5 12.5V27.7822L20 35.5L33.5 27.7822V12.5L20 5Z" stroke="white"/>
</svg>
