<svg width="40" height="40" viewBox="0 0 40 40" fill="none" xmlns="http://www.w3.org/2000/svg">
<path d="M14 20.1329C13.9702 20.1042 13.94 20.0759 13.9095 20.048C12.9303 19.1502 11.6281 18.6477 10.2721 18.6477C8.87384 18.6477 7.53286 19.1819 6.54416 20.1329C5.55545 21.0839 5 22.3737 5 23.7186V23.9134C5 24.2016 5.11902 24.478 5.33088 24.6817C5.54274 24.8855 5.83008 25 6.12969 25H11.5901M12.692 14.3283C12.692 15.6141 11.6083 16.6565 10.2714 16.6565C8.93455 16.6565 7.85081 15.6141 7.85081 14.3283C7.85081 13.0424 8.93455 12 10.2714 12C11.6083 12 12.692 13.0424 12.692 14.3283Z" stroke="#C3CBDA"/>
<path d="M26 20.1329C26.0298 20.1042 26.06 20.0759 26.0905 20.048C27.0697 19.1502 28.3719 18.6477 29.7279 18.6477C31.1262 18.6477 32.4671 19.1819 33.4558 20.1329C34.4446 21.0839 35 22.3737 35 23.7186V23.9134C35 24.2016 34.881 24.478 34.6691 24.6817C34.4573 24.8855 34.1699 25 33.8703 25H28.4099M27.308 14.3283C27.308 15.6141 28.3917 16.6565 29.7286 16.6565C31.0655 16.6565 32.1492 15.6141 32.1492 14.3283C32.1492 13.0424 31.0655 12 29.7286 12C28.3917 12 27.308 13.0424 27.308 14.3283Z" stroke="#C3CBDA"/>
<path d="M19.9989 16.0593C22.281 16.0593 24.1311 14.2552 24.1311 12.0297C24.1311 9.80414 22.281 8 19.9989 8C17.7167 8 15.8666 9.80414 15.8666 12.0297C15.8666 14.2552 17.7167 16.0593 19.9989 16.0593Z" stroke="white"/>
</svg>

