<svg width="40" height="40" viewBox="0 0 40 40" fill="none" xmlns="http://www.w3.org/2000/svg">
<path d="M25.9261 10.3323C25.9261 13.5464 23.2792 16.1647 19.9982 16.1647C16.7172 16.1647 14.0703 13.5464 14.0703 10.3323C14.0703 7.11826 16.7172 4.5 19.9982 4.5C23.2792 4.5 25.9261 7.11826 25.9261 10.3323ZM20 20.223C23.5828 20.223 27.0174 21.6252 29.5486 24.1188C32.0795 26.6121 33.5 29.9921 33.5 33.5149V34.0447C33.5 34.6935 33.2385 35.3172 32.7705 35.7782C32.3022 36.2395 31.6655 36.5 31.0001 36.5H8.99989C8.33448 36.5 7.69781 36.2395 7.22954 35.7782C6.76153 35.3172 6.5 34.6935 6.5 34.0447V33.5149C6.5 29.9921 7.92047 26.6121 10.4514 24.1188C12.9826 21.6252 16.4172 20.223 20 20.223Z" stroke="white"/>
</svg>
