<svg width="40" height="40" viewBox="0 0 40 40" fill="none" xmlns="http://www.w3.org/2000/svg">
<path fill-rule="evenodd" clip-rule="evenodd" d="M16.7098 4.89031C14.7925 3.78098 12.2295 4.27239 10.9733 6.06328C9.68568 7.8989 10.3104 10.3126 12.2628 11.4423C13.183 11.9747 14.8168 12.4612 16.3382 12.6331C17.1054 12.7198 17.8898 12.7322 18.5735 12.6103C19.0754 12.5208 19.5961 12.3454 20 12.0096C20.4039 12.3454 20.9246 12.5208 21.4265 12.6103C22.1102 12.7322 22.8946 12.7198 23.6618 12.6331C25.1832 12.4612 26.817 11.9747 27.7372 11.4423C29.6896 10.3126 30.3143 7.8989 29.0267 6.06328C27.7705 4.27239 25.2075 3.78098 23.2902 4.89031C22.367 5.42446 21.1822 6.5707 20.3585 7.76376C20.2322 7.94656 20.1116 8.13451 20 8.32554C19.8884 8.13451 19.7678 7.94656 19.6415 7.76376C18.8178 6.5707 17.633 5.42446 16.7098 4.89031ZM19.3002 10.4601L19.3002 10.466C19.2996 10.637 19.2579 10.751 19.2051 10.8262C19.1035 10.9711 18.8499 11.139 18.3278 11.232C17.8248 11.3217 17.1871 11.3202 16.4953 11.242C15.0988 11.0842 13.6673 10.6375 12.9639 10.2305C11.6689 9.48123 11.3382 7.98093 12.1194 6.86724C12.932 5.70882 14.6786 5.33251 16.0087 6.10209C16.7092 6.5074 17.7511 7.48982 18.4895 8.55922C18.856 9.08998 19.1168 9.59861 19.2333 10.0265C19.2808 10.2009 19.3 10.3435 19.3002 10.4601ZM20.7949 10.8262C20.7421 10.751 20.7004 10.637 20.6998 10.466L20.6998 10.4601C20.7 10.3435 20.7192 10.2009 20.7667 10.0265C20.8832 9.59861 21.144 9.08998 21.5105 8.55922C22.2489 7.48982 23.2908 6.5074 23.9913 6.10209C25.3214 5.33251 27.068 5.70882 27.8806 6.86724C28.6618 7.98093 28.3311 9.48123 27.0361 10.2305C26.3327 10.6375 24.9012 11.0842 23.5047 11.242C22.8129 11.3202 22.1752 11.3217 21.6722 11.232C21.1501 11.139 20.8965 10.9711 20.7949 10.8262ZM4.5 14C4.5 13.7239 4.72386 13.5 5 13.5H35.5C35.7761 13.5 36 13.7239 36 14V17C36 17.2762 35.7761 17.5 35.5 17.5H34V34C34 34.2762 33.7761 34.5 33.5 34.5H7C6.72386 34.5 6.5 34.2762 6.5 34V17.5H5C4.72386 17.5 4.5 17.2762 4.5 17V14ZM33 33.5V17.5H7.5V33.5H33ZM33.5 16.5H7H6.5H5.5V14.5H35V16.5H34H33.5Z" fill="white"/>
<circle cx="16.6632" cy="22.3682" r="2.00191" transform="rotate(-45 16.6632 22.3682)" stroke="white"/>
<circle cx="23.7375" cy="28.03" r="2.00191" transform="rotate(-45 23.7375 28.03)" stroke="white"/>
<path d="M16.6614 30.1524L23.7379 20.2453" stroke="white"/>
</svg>
