<svg width="44" height="44" viewBox="0 0 44 44" fill="none" xmlns="http://www.w3.org/2000/svg">
<path d="M6.13173 4.90283L19.7626 15.2054L17.3458 9.08739L6.13173 4.90283ZM32.9101 28.5601L29.2504 34.1671L37.0809 36.3215L39.332 28.6844L32.9101 28.5601ZM4.68164 28.6844L6.91893 36.3215L14.7494 34.1671L11.0897 28.5601L4.68164 28.6844Z" fill="#E4761B" stroke="#E4761B" stroke-width="0.916667" stroke-linecap="round" stroke-linejoin="round"/>
<path d="M14.7496 34.167L15.4125 28.56L11.0898 28.6843L14.7496 34.167ZM28.5876 28.56L29.2505 34.167L32.9103 28.6843L28.5876 28.56ZM31.8745 22.3867L24.1131 22.732L24.8312 26.7232L25.9775 24.3202L28.7396 25.5769L31.8745 22.3867ZM15.2744 25.5769L18.0365 24.3202L19.1689 26.7232L19.9009 22.732L12.1256 22.3867L15.2744 25.5769Z" fill="#CD6116" stroke="#CD6116" stroke-width="0.916667" stroke-linecap="round" stroke-linejoin="round"/>
<path d="M37.8547 4.90283L24.1133 15.1087L26.6544 9.08739L37.8547 4.90283Z" fill="#E2761B" stroke="#E2761B" stroke-width="0.916667" stroke-linecap="round" stroke-linejoin="round"/>
<path d="M14.309 19.0858L12.127 22.3865L19.9022 22.7318L19.626 14.3765L14.309 19.0858ZM29.68 19.0858L24.2939 14.2798L24.1144 22.7318L31.8759 22.3865L29.68 19.0858ZM14.7509 34.1668L19.4189 31.8881L15.3862 28.7393L14.7509 34.1668ZM24.5701 31.8881L29.2519 34.1668L28.6028 28.7393L24.5701 31.8881Z" fill="#E4761B" stroke="#E4761B" stroke-width="0.916667" stroke-linecap="round" stroke-linejoin="round"/>
<path d="M29.2509 34.1669L24.5692 31.8882L24.9421 34.9403L24.9007 36.2247L29.2509 34.1669ZM14.75 34.1669L19.1003 36.2247L19.0727 34.9403L19.4179 31.8882L14.75 34.1669Z" fill="#D7C1B3" stroke="#D7C1B3" stroke-width="0.916667" stroke-linecap="round" stroke-linejoin="round"/>
<path d="M19.168 26.7233L15.2734 25.5771L18.0217 24.3203L19.168 26.7233ZM24.8164 26.7233L25.9627 24.3203L28.7248 25.5771L24.8164 26.7233Z" fill="#233447" stroke="#233447" stroke-width="0.916667" stroke-linecap="round" stroke-linejoin="round"/>
<path d="M12.127 22.3867L15.3862 28.7395L15.2757 25.5769L12.127 22.3867ZM28.7409 25.5769L28.6028 28.7395L31.8759 22.3867L28.7409 25.5769ZM19.9022 22.732L19.1703 26.7232L20.0818 31.4325L20.2889 25.2317L19.9022 22.732ZM24.1144 22.732L23.7415 25.2179L23.9072 31.4325L24.8325 26.7232L24.1144 22.732Z" fill="#E4751F" stroke="#E4751F" stroke-width="0.916667" stroke-linecap="round" stroke-linejoin="round"/>
<path d="M24.8302 26.7229L23.905 31.4323L24.5678 31.888L28.6005 28.7392L28.7386 25.5767L24.8302 26.7229ZM15.2734 25.5767L15.3839 28.7392L19.4166 31.888L20.0795 31.4323L19.168 26.7229L15.2734 25.5767Z" fill="#F6851B" stroke="#F6851B" stroke-width="0.916667" stroke-linecap="round" stroke-linejoin="round"/>
<path d="M24.9007 36.2247L24.9421 34.9404L24.5968 34.6365H19.3903L19.0727 34.9404L19.1003 36.2247L14.75 34.167L16.2691 35.4099L19.3489 37.5505H24.6383L27.7318 35.4099L29.2509 34.167L24.9007 36.2247Z" fill="#C0AD9E" stroke="#C0AD9E" stroke-width="0.916667" stroke-linecap="round" stroke-linejoin="round"/>
<path d="M24.5688 31.8884L23.9059 31.4326H20.0804L19.4175 31.8884L19.0723 34.9405L19.3899 34.6366H24.5964L24.9417 34.9405L24.5688 31.8884Z" fill="#161616" stroke="#161616" stroke-width="0.916667" stroke-linecap="round" stroke-linejoin="round"/>
<path d="M38.4353 15.7716L39.6091 10.137L37.8552 4.90283L24.5696 14.7635L29.6795 19.0861L36.9023 21.1991L38.5043 19.3347L37.8138 18.8375L38.9186 17.8294L38.0624 17.1665L39.1672 16.324L38.4353 15.7716ZM4.39258 10.137L5.56646 15.7716L4.8207 16.324L5.92553 17.1665L5.0831 17.8294L6.18793 18.8375L5.49741 19.3347L7.08561 21.1991L14.3085 19.0861L19.4183 14.7635L6.13269 4.90283L4.39258 10.137Z" fill="#763D16" stroke="#763D16" stroke-width="0.916667" stroke-linecap="round" stroke-linejoin="round"/>
<path d="M36.9014 21.1991L29.6785 19.0861L31.8744 22.3868L28.6013 28.7396L32.9101 28.6844H39.332L36.9014 21.1991ZM14.3075 19.0861L7.08465 21.1991L4.68164 28.6844H11.0897L15.3847 28.7396L12.1255 22.3868L14.3075 19.0861ZM24.1129 22.7321L24.5686 14.7635L26.6678 9.0874H17.3458L19.4174 14.7635L19.9007 22.7321L20.0664 25.2456L20.0803 31.4327H23.9057L23.9334 25.2456L24.1129 22.7321Z" fill="#F6851B" stroke="#F6851B" stroke-width="0.916667" stroke-linecap="round" stroke-linejoin="round"/>
</svg>
