<svg width="32" height="32" viewBox="0 0 32 32" fill="none" xmlns="http://www.w3.org/2000/svg">
<g clip-path="url(#clip0_8692_75998)">
<path d="M16 32C24.8366 32 32 24.8366 32 16C32 7.16344 24.8366 0 16 0C7.16344 0 0 7.16344 0 16C0 24.8366 7.16344 32 16 32Z" fill="#ECB11B"/>
<g filter="url(#filter0_d_8692_75998)">
<path d="M15.9994 29.5383C23.4765 29.5383 29.5379 23.477 29.5379 15.9999C29.5379 8.5228 23.4765 2.46143 15.9994 2.46143C8.52231 2.46143 2.46094 8.5228 2.46094 15.9999C2.46094 23.477 8.52231 29.5383 15.9994 29.5383Z" fill="#FFCA16"/>
</g>
<g filter="url(#filter1_d_8692_75998)">
<path d="M11.1105 19.2818L10.8104 18.2503H8.5036L8.20353 19.2818H6.5625L8.70052 12.7177H10.6135L12.7515 19.2818H11.1105ZM8.92558 16.8437H10.3884L9.65701 14.3587L8.92558 16.8437Z" fill="black"/>
<path d="M16.2867 17.0031V15.6903H19.475V17.0031V19.2818H18.0684V18.5129C17.6058 19.113 16.94 19.4131 16.0711 19.4131C15.1583 19.4131 14.3925 19.088 13.7736 18.4379C13.1547 17.7814 12.8453 16.9687 12.8453 15.9998C12.8453 15.0308 13.1672 14.2212 13.8111 13.571C14.4613 12.9146 15.2771 12.5864 16.2586 12.5864C17.0463 12.5864 17.7434 12.8177 18.3498 13.2803C18.9562 13.7367 19.3312 14.2993 19.475 14.9683H17.909C17.8027 14.7119 17.5964 14.4963 17.2901 14.3212C16.9838 14.1399 16.64 14.0493 16.2586 14.0493C15.6772 14.0493 15.2115 14.2275 14.8614 14.5838C14.5176 14.9401 14.3457 15.4121 14.3457 15.9998C14.3457 16.6249 14.5238 17.1219 14.8802 17.4907C15.2365 17.8596 15.696 18.044 16.2586 18.044C16.665 18.044 17.0151 17.9534 17.3089 17.7721C17.6089 17.5908 17.8184 17.3345 17.9372 17.0031H16.2867Z" fill="black"/>
<path d="M23.0874 12.7177C23.7313 12.7177 24.2752 12.9365 24.7191 13.3741C25.1629 13.8117 25.3848 14.3431 25.3848 14.9683C25.3848 15.5934 25.1629 16.1248 24.7191 16.5624C24.2752 17 23.7313 17.2188 23.0874 17.2188H22.1028V19.2818H20.6024V12.7177H22.1028H23.0874ZM23.0874 15.8122C23.3187 15.8122 23.5094 15.7309 23.6594 15.5684C23.8095 15.4059 23.8845 15.2058 23.8845 14.9683C23.8845 14.7307 23.8095 14.5307 23.6594 14.3681C23.5094 14.2056 23.3187 14.1243 23.0874 14.1243H22.1028V15.8122H23.0874Z" fill="black"/>
</g>
</g>
<defs>
<filter id="filter0_d_8692_75998" x="1.46094" y="1.46143" width="29.0781" height="29.0771" filterUnits="userSpaceOnUse" color-interpolation-filters="sRGB">
<feFlood flood-opacity="0" result="BackgroundImageFix"/>
<feColorMatrix in="SourceAlpha" type="matrix" values="0 0 0 0 0 0 0 0 0 0 0 0 0 0 0 0 0 0 127 0" result="hardAlpha"/>
<feOffset/>
<feGaussianBlur stdDeviation="0.5"/>
<feComposite in2="hardAlpha" operator="out"/>
<feColorMatrix type="matrix" values="0 0 0 0 0.55 0 0 0 0 0.425806 0 0 0 0 0 0 0 0 0.7 0"/>
<feBlend mode="normal" in2="BackgroundImageFix" result="effect1_dropShadow_8692_75998"/>
<feBlend mode="normal" in="SourceGraphic" in2="effect1_dropShadow_8692_75998" result="shape"/>
</filter>
<filter id="filter1_d_8692_75998" x="5.47159" y="11.4955" width="21.006" height="9.00848" filterUnits="userSpaceOnUse" color-interpolation-filters="sRGB">
<feFlood flood-opacity="0" result="BackgroundImageFix"/>
<feColorMatrix in="SourceAlpha" type="matrix" values="0 0 0 0 0 0 0 0 0 0 0 0 0 0 0 0 0 0 127 0" result="hardAlpha"/>
<feOffset/>
<feGaussianBlur stdDeviation="0.545455"/>
<feComposite in2="hardAlpha" operator="out"/>
<feColorMatrix type="matrix" values="0 0 0 0 0.8 0 0 0 0 0.615686 0 0 0 0 0 0 0 0 1 0"/>
<feBlend mode="normal" in2="BackgroundImageFix" result="effect1_dropShadow_8692_75998"/>
<feBlend mode="normal" in="SourceGraphic" in2="effect1_dropShadow_8692_75998" result="shape"/>
</filter>
<clipPath id="clip0_8692_75998">
<rect width="32" height="32" fill="white"/>
</clipPath>
</defs>
</svg>
