<svg width="200" height="30" viewBox="0 0 200 30" fill="none" xmlns="http://www.w3.org/2000/svg">
<g id="Frame 81516759">
<g id="g18">
<path id="path16" d="M6.58777 14.7826L3.29246 18.1215L0 14.7826L3.29246 11.4437L6.58777 14.7826ZM14.5768 6.67499L20.219 12.3997L23.5115 9.06077L14.5768 0L5.64218 9.06077L8.93464 12.3997L14.5768 6.67499ZM25.864 11.4437L22.5716 14.7826L25.864 18.1215L29.1536 14.7826L25.864 11.4437ZM14.5768 22.8902L8.93464 17.1684L5.64218 20.5044L14.5768 29.5652L23.5115 20.5044L20.219 17.1684L14.5768 22.8902ZM14.5768 18.1215L17.8693 14.7826L14.5768 11.4437L11.2844 14.7826L14.5768 18.1215ZM49.3242 18.4422V18.3959C49.3242 16.2181 48.185 15.1292 46.3308 14.4129C47.4701 13.763 48.4328 12.7434 48.4328 10.9151V10.8689C48.4328 8.32135 46.422 6.67499 43.1551 6.67499H35.7386V22.8902H43.3431C46.9517 22.8902 49.3299 21.4085 49.3299 18.4422H49.3242ZM44.9381 11.5101C44.9381 12.7145 43.9555 13.2258 42.4032 13.2258H39.1649V9.80308H42.6368C44.1207 9.80308 44.9438 10.4039 44.9438 11.4697L44.9381 11.5101ZM45.8296 17.9973C45.8296 19.2018 44.8925 19.7564 43.3374 19.7564H39.1649V16.195H43.2292C45.0349 16.195 45.8353 16.868 45.8353 17.9569L45.8296 17.9973ZM56.7152 22.8902V6.67499H53.1863V22.8902H56.7152ZM75.624 22.8902V6.67499H72.1408V16.66L64.6501 6.67499H61.4061V22.8902H64.878V12.5817L72.6192 22.8902H75.624ZM95.1082 22.8902L88.2442 6.55946H85.0001L78.1503 22.8902H81.7362L83.203 19.2538H89.9645L91.4256 22.8902H95.1082ZM88.7141 16.1026H84.4533L86.578 10.8458L88.7141 16.1026ZM111.875 22.8902V6.67499H108.392V16.66L100.899 6.67499H97.6573V22.8902H101.126V12.5817L108.87 22.8902H111.875ZM130.032 20.2734L127.796 17.98C126.54 19.1354 125.421 19.8777 123.593 19.8777C120.853 19.8777 118.956 17.567 118.956 14.7826V14.7364C118.956 11.9578 120.898 9.68755 123.593 9.68755C125.19 9.68755 126.441 10.3808 127.682 11.5159L129.913 8.89903C128.429 7.4173 126.626 6.39771 123.61 6.39771C118.699 6.39771 115.273 10.1728 115.273 14.7739V14.8202C115.273 19.4762 118.768 23.1588 123.473 23.1588C126.552 23.1675 128.377 22.0555 130.021 20.2734H130.032ZM145.042 22.8902V19.713H136.349V16.3019H143.888V13.1247H136.349V9.8493H144.917V6.6721H132.855V22.8873L145.042 22.8902Z" fill="white"/>
<path id="Vector" d="M190.574 23.3613V16.8071L191.251 18.7L184.158 6.79834H187.401L193.094 16.3812H191.274L197.014 6.79834H200L192.907 18.7L193.607 16.8071V23.3613H190.574Z" fill="white"/>
<path id="Vector_2" d="M167.754 23.3613L175.103 6.79834H178.09L185.463 23.3613H182.29L175.967 8.43098H177.18L170.88 23.3613H167.754ZM171.137 19.5282L171.954 17.1147H180.773L181.59 19.5282H171.137Z" fill="white"/>
<path id="Vector_3" d="M154.183 23.3612V6.79822H160.903C162.349 6.79822 163.586 7.03483 164.613 7.50806C165.655 7.98129 166.456 8.65958 167.016 9.54294C167.576 10.4263 167.856 11.4753 167.856 12.6899C167.856 13.9045 167.576 14.9535 167.016 15.8369C166.456 16.7202 165.655 17.3985 164.613 17.8718C163.586 18.345 162.349 18.5816 160.903 18.5816H155.863L157.216 17.1383V23.3612H154.183ZM157.216 17.4695L155.863 15.9789H160.763C162.1 15.9789 163.104 15.6949 163.773 15.127C164.457 14.5434 164.799 13.731 164.799 12.6899C164.799 11.633 164.457 10.8207 163.773 10.2528C163.104 9.68491 162.1 9.40097 160.763 9.40097H155.863L157.216 7.88664V17.4695Z" fill="white"/>
</g>
</g>
</svg>
