<svg width="28" height="28" viewBox="0 0 28 28" fill="none" xmlns="http://www.w3.org/2000/svg">
<g clip-path="url(#clip0_9773_95440)">
<path d="M14 28C21.732 28 28 21.732 28 14C28 6.26801 21.732 0 14 0C6.26801 0 0 6.26801 0 14C0 21.732 6.26801 28 14 28Z" fill="#813ED6"/>
<g filter="url(#filter0_d_9773_95440)">
<path d="M14.0005 25.8461C20.5429 25.8461 25.8466 20.5424 25.8466 14C25.8466 7.45751 20.5429 2.15381 14.0005 2.15381C7.458 2.15381 2.1543 7.45751 2.1543 14C2.1543 20.5424 7.458 25.8461 14.0005 25.8461Z" fill="#A57ED6"/>
</g>
<path d="M3.58789 11.6616H5.07358L6.33388 14.7348H6.39204L7.65234 11.6616H9.13803V16.6252H7.96983V13.5763H7.92863L6.7362 16.5937H5.98972L4.79729 13.5593H4.75609V16.6252H3.58789V11.6616Z" fill="#1F0F33"/>
<path d="M10.687 16.6252H9.39762L11.0724 11.6616H12.6695L14.3443 16.6252H13.0549L11.8891 12.9122H11.8504L10.687 16.6252ZM10.5149 14.6718H13.21V15.5831H10.5149V14.6718Z" fill="#1F0F33"/>
<path d="M13.8235 12.6359V11.6616H18.0188V12.6359H16.5137V16.6252H15.331V12.6359H13.8235Z" fill="#1F0F33"/>
<path d="M19.5314 11.6616V16.6252H18.3317V11.6616H19.5314Z" fill="#1F0F33"/>
<path d="M24.5171 13.46H23.3053C23.2891 13.3355 23.256 13.2232 23.2059 13.1231C23.1558 13.0229 23.0896 12.9373 23.0072 12.8662C22.9248 12.7951 22.827 12.7409 22.7139 12.7038C22.6024 12.665 22.4788 12.6456 22.3431 12.6456C22.1023 12.6456 21.8947 12.7046 21.7202 12.8225C21.5473 12.9405 21.414 13.1109 21.3203 13.3339C21.2282 13.5569 21.1822 13.8267 21.1822 14.1434C21.1822 14.473 21.229 14.7493 21.3227 14.9723C21.4181 15.1937 21.5514 15.3609 21.7226 15.474C21.8955 15.5855 22.0999 15.6412 22.3358 15.6412C22.4683 15.6412 22.5887 15.6243 22.6969 15.5903C22.8068 15.5564 22.903 15.5071 22.9854 15.4425C23.0694 15.3762 23.138 15.2963 23.1914 15.2026C23.2463 15.1072 23.2843 14.9998 23.3053 14.8802L24.5171 14.8875C24.4961 15.1072 24.4323 15.3237 24.3256 15.537C24.2206 15.7503 24.076 15.945 23.8918 16.1211C23.7076 16.2956 23.483 16.4346 23.218 16.538C22.9547 16.6414 22.6525 16.6931 22.3116 16.6931C21.8624 16.6931 21.4601 16.5945 21.1046 16.3974C20.7508 16.1987 20.4712 15.9094 20.266 15.5297C20.0608 15.15 19.9582 14.6879 19.9582 14.1434C19.9582 13.5973 20.0624 13.1344 20.2709 12.7547C20.4793 12.375 20.7613 12.0866 21.1167 11.8894C21.4722 11.6923 21.8705 11.5938 22.3116 11.5938C22.6121 11.5938 22.89 11.6358 23.1453 11.7198C23.4006 11.8022 23.6252 11.9234 23.8191 12.0833C24.013 12.2417 24.1705 12.4364 24.2917 12.6674C24.4129 12.8985 24.488 13.1627 24.5171 13.46Z" fill="#1F0F33"/>
</g>
<defs>
<filter id="filter0_d_9773_95440" x="1.1543" y="1.15381" width="25.6914" height="25.6924" filterUnits="userSpaceOnUse" color-interpolation-filters="sRGB">
<feFlood flood-opacity="0" result="BackgroundImageFix"/>
<feColorMatrix in="SourceAlpha" type="matrix" values="0 0 0 0 0 0 0 0 0 0 0 0 0 0 0 0 0 0 127 0" result="hardAlpha"/>
<feOffset/>
<feGaussianBlur stdDeviation="0.5"/>
<feComposite in2="hardAlpha" operator="out"/>
<feColorMatrix type="matrix" values="0 0 0 0 0.402196 0 0 0 0 0.0656424 0 0 0 0 0.829167 0 0 0 0.7 0"/>
<feBlend mode="normal" in2="BackgroundImageFix" result="effect1_dropShadow_9773_95440"/>
<feBlend mode="normal" in="SourceGraphic" in2="effect1_dropShadow_9773_95440" result="shape"/>
</filter>
<clipPath id="clip0_9773_95440">
<rect width="28" height="28" fill="white"/>
</clipPath>
</defs>
</svg>
