<svg width="32" height="32" viewBox="0 0 32 32" fill="none" xmlns="http://www.w3.org/2000/svg">
<g clip-path="url(#clip0_8694_36248)">
<circle cx="16" cy="16" r="16" fill="white"/>
<path d="M20.3708 12.2584L11.6364 17.3061C11.4756 17.398 11.2935 17.4463 11.1083 17.4463C10.923 17.4463 10.741 17.398 10.5802 17.3061L7.78312 15.6953C7.62454 15.6014 7.4933 15.4676 7.40243 15.3072C7.31157 15.1469 7.26424 14.9655 7.26516 14.7812V11.5597C7.26528 11.3744 7.31414 11.1924 7.40684 11.0319C7.49954 10.8715 7.63281 10.7382 7.79328 10.6456L10.5822 9.03481C10.743 8.9429 10.9251 8.89455 11.1103 8.89455C11.2956 8.89455 11.4776 8.9429 11.6384 9.03481L14.4273 10.6456C14.5878 10.7382 14.7211 10.8715 14.8138 11.0319C14.9065 11.1924 14.9553 11.3744 14.9555 11.5597V13.1054C14.9555 13.1516 14.9677 13.1969 14.9907 13.2369C15.0137 13.2768 15.0468 13.3101 15.0866 13.3333C15.1265 13.3565 15.1717 13.3689 15.2179 13.3692C15.264 13.3695 15.3094 13.3577 15.3495 13.335L16.8019 12.4961C16.8819 12.4496 16.9482 12.3829 16.9942 12.3027C17.0402 12.2225 17.0643 12.1315 17.0639 12.039V10.3409C17.0638 10.1559 17.0151 9.97406 16.9228 9.81367C16.8305 9.65328 16.6978 9.51991 16.5378 9.42684L11.6283 6.59934C11.4678 6.50644 11.2856 6.45752 11.1002 6.45752C10.9147 6.45752 10.7325 6.50644 10.572 6.59934L5.67266 9.42684C5.51219 9.51949 5.37891 9.65272 5.28621 9.81317C5.19351 9.97361 5.14465 10.1556 5.14453 10.3409V16C5.14465 16.1853 5.19351 16.3673 5.28621 16.5277C5.37891 16.6882 5.51219 16.8214 5.67266 16.914L10.572 19.7415C10.7325 19.8344 10.9147 19.8834 11.1002 19.8834C11.2856 19.8834 11.4678 19.8344 11.6283 19.7415L20.3627 14.6939C20.5235 14.602 20.7055 14.5536 20.8908 14.5536C21.076 14.5536 21.2581 14.602 21.4189 14.6939L24.2078 16.3047C24.3683 16.3973 24.5016 16.5305 24.5943 16.691C24.687 16.8514 24.7358 17.0334 24.7359 17.2187V20.4403C24.7358 20.6256 24.687 20.8076 24.5943 20.968C24.5016 21.1285 24.3683 21.2617 24.2078 21.3543L21.427 22.9651C21.2662 23.057 21.0842 23.1054 20.8989 23.1054C20.7137 23.1054 20.5316 23.057 20.3708 22.9651L17.5819 21.3543C17.4214 21.2617 17.2881 21.1285 17.1954 20.968C17.1027 20.8076 17.0539 20.6256 17.0538 20.4403V18.8925C17.054 18.8463 17.0419 18.8008 17.0189 18.7608C16.9959 18.7207 16.9627 18.6875 16.9227 18.6644C16.8827 18.6413 16.8373 18.6292 16.7911 18.6293C16.7449 18.6294 16.6996 18.6417 16.6597 18.665L15.2073 19.5018C15.1275 19.5484 15.0613 19.6152 15.0153 19.6954C14.9693 19.7756 14.9452 19.8664 14.9453 19.9589V21.659C14.9454 21.8441 14.9941 22.0259 15.0864 22.1863C15.1787 22.3467 15.3115 22.48 15.4714 22.5731L20.3708 25.4006C20.5313 25.4935 20.7135 25.5424 20.8989 25.5424C21.0844 25.5424 21.2665 25.4935 21.427 25.4006L26.3264 22.5731C26.4869 22.4804 26.6202 22.3472 26.7129 22.1868C26.8056 22.0263 26.8544 21.8443 26.8545 21.659V16C26.8544 15.8147 26.8056 15.6327 26.7129 15.4722C26.6202 15.3118 26.4869 15.1786 26.3264 15.0859L21.427 12.2584C21.2665 12.1655 21.0844 12.1166 20.8989 12.1166C20.7135 12.1166 20.5313 12.1655 20.3708 12.2584Z" fill="#8247E5"/>
</g>
<defs>
<clipPath id="clip0_8694_36248">
<rect width="32" height="32" rx="16" fill="white"/>
</clipPath>
</defs>
</svg>
