<svg width="135" height="36" viewBox="0 0 135 36" fill="none" xmlns="http://www.w3.org/2000/svg">
<g id="Group">
<g id="Icon">
<g id="Vector">
<path d="M21.4654 16.3427C21.4298 12.4751 24.7104 10.5935 24.8604 10.5059C23.0025 7.86225 20.1227 7.50106 19.1107 7.47226C16.692 7.22386 14.3459 8.88465 13.1138 8.88465C11.8571 8.88465 9.95977 7.49625 7.9149 7.53706C5.28349 7.57665 2.82177 9.06345 1.47164 11.3723C-1.3147 16.0799 0.76337 22.9979 3.4329 26.8031C4.76827 28.6667 6.32867 30.7475 8.37109 30.6743C10.3692 30.5939 11.1156 29.4311 13.5269 29.4311C15.9161 29.4311 16.617 30.6743 18.7 30.6275C20.8445 30.5939 22.1946 28.7555 23.4832 26.8751C25.0264 24.7391 25.6462 22.6355 25.6707 22.5275C25.6203 22.5107 21.506 20.9783 21.4654 16.3427Z" fill="white"/>
<path d="M17.5306 4.96906C18.6053 3.65746 19.3406 1.87306 19.1365 0.0622559C17.581 0.129456 15.6357 1.11226 14.5155 2.39506C13.5245 3.52546 12.6391 5.37826 12.8678 7.12066C14.6151 7.24786 16.4092 6.26026 17.5306 4.96906Z" fill="white"/>
</g>
</g>
<g id="Download on the">
<path id="D" d="M44.733 4.61274C44.733 6.02514 44.299 7.08834 43.4321 7.80234C42.6291 8.46114 41.488 8.79114 40.01 8.79114C39.2772 8.79114 38.6501 8.75994 38.125 8.69754V0.980338C38.8099 0.872338 39.5477 0.817139 40.3445 0.817139C41.7524 0.817139 42.8136 1.11594 43.5292 1.71354C44.3309 2.38914 44.733 3.35514 44.733 4.61274ZM43.3743 4.64754C43.3743 3.73194 43.1259 3.02994 42.6291 2.54034C42.1324 2.05194 41.4069 1.80714 40.4515 1.80714C40.0457 1.80714 39.7002 1.83354 39.4137 1.88874V7.75554C39.5723 7.77954 39.8625 7.79034 40.2842 7.79034C41.2704 7.79034 42.0315 7.52274 42.5677 6.98754C43.1038 6.45234 43.3743 5.67234 43.3743 4.64754Z" fill="white"/>
<path id="o" d="M51.9389 5.84626C51.9389 6.71626 51.6844 7.42906 51.1753 7.98826C50.6417 8.56306 49.9346 8.84986 49.0518 8.84986C48.2008 8.84986 47.5233 8.57506 47.0179 8.02306C46.5138 7.47226 46.2617 6.77746 46.2617 5.93986C46.2617 5.06386 46.5212 4.34506 47.0425 3.78706C47.5639 3.22906 48.2648 2.94946 49.1477 2.94946C49.9986 2.94946 50.6822 3.22426 51.1999 3.77506C51.6918 4.31026 51.9389 5.00146 51.9389 5.84626ZM50.6023 5.88706C50.6023 5.36506 50.4867 4.91746 50.2568 4.54426C49.9863 4.09306 49.6014 3.86746 49.1009 3.86746C48.5833 3.86746 48.1898 4.09306 47.9193 4.54426C47.6881 4.91746 47.5737 5.37226 47.5737 5.90986C47.5737 6.43186 47.6893 6.87946 47.9193 7.25266C48.1984 7.70386 48.587 7.92946 49.0886 7.92946C49.5805 7.92946 49.9666 7.70026 50.2445 7.24066C50.483 6.86026 50.6023 6.40906 50.6023 5.88706Z" fill="white"/>
<path id="w" d="M61.5976 3.0647L59.7839 8.7215H58.6034L57.8521 6.2651C57.6615 5.6519 57.5066 5.0423 57.3861 4.4375H57.3627C57.2508 5.0591 57.0959 5.6675 56.8967 6.2651L56.0987 8.7215H54.9047L53.1992 3.0647H54.5235L55.1789 5.7539C55.3375 6.3899 55.4679 6.9959 55.5724 7.5695H55.5958C55.6917 7.0967 55.8503 6.4943 56.0741 5.7659L56.8967 3.0659H57.9468L58.735 5.7083C58.9256 6.3527 59.0805 6.9731 59.1998 7.5707H59.2355C59.3228 6.9887 59.4543 6.3683 59.6289 5.7083L60.3323 3.0659H61.5976V3.0647Z" fill="white"/>
<path id="n" d="M68.2761 8.72152H66.9875V5.48152C66.9875 4.48312 66.5989 3.98392 65.8193 3.98392C65.4369 3.98392 65.1283 4.12072 64.8885 4.39552C64.6512 4.67032 64.5307 4.99432 64.5307 5.36512V8.72032H63.242V4.68112C63.242 4.18432 63.2261 3.64552 63.1953 3.06232H64.3278L64.3881 3.94672H64.4237C64.5737 3.67192 64.7975 3.44512 65.0914 3.26392C65.4406 3.05272 65.8316 2.94592 66.2595 2.94592C66.8006 2.94592 67.2506 3.11632 67.6084 3.45832C68.0536 3.87712 68.2761 4.50232 68.2761 5.33272V8.72152Z" fill="white"/>
<path id="l" d="M71.8304 8.72152H70.543V0.469116H71.8304V8.72152Z" fill="white"/>
<path id="o_2" d="M79.4194 5.84626C79.4194 6.71626 79.1649 7.42906 78.6558 7.98826C78.1221 8.56306 77.4139 8.84986 76.5322 8.84986C75.6801 8.84986 75.0026 8.57506 74.4984 8.02306C73.9943 7.47226 73.7422 6.77746 73.7422 5.93986C73.7422 5.06386 74.0016 4.34506 74.523 3.78706C75.0444 3.22906 75.7453 2.94946 76.6269 2.94946C77.479 2.94946 78.1615 3.22426 78.6804 3.77506C79.1722 4.31026 79.4194 5.00146 79.4194 5.84626ZM78.0816 5.88706C78.0816 5.36506 77.966 4.91746 77.736 4.54426C77.4667 4.09306 77.0806 3.86746 76.5814 3.86746C76.0625 3.86746 75.669 4.09306 75.3997 4.54426C75.1686 4.91746 75.0542 5.37226 75.0542 5.90986C75.0542 6.43186 75.1698 6.87946 75.3997 7.25266C75.6789 7.70386 76.0674 7.92946 76.5691 7.92946C77.061 7.92946 77.4458 7.70026 77.7237 7.24066C77.9635 6.86026 78.0816 6.40906 78.0816 5.88706Z" fill="white"/>
<path id="a" d="M85.6532 8.72146H84.4961L84.4002 8.06986H84.3645C83.9686 8.58946 83.4042 8.84986 82.6713 8.84986C82.1242 8.84986 81.6815 8.67826 81.3483 8.33746C81.0458 8.02786 80.8945 7.64266 80.8945 7.18546C80.8945 6.49426 81.1896 5.96746 81.7836 5.60266C82.3762 5.23786 83.2099 5.05906 84.2834 5.06746V4.96186C84.2834 4.21666 83.8825 3.84466 83.0796 3.84466C82.5078 3.84466 82.0037 3.98506 81.5684 4.26346L81.3065 3.43786C81.845 3.11266 82.5103 2.94946 83.2948 2.94946C84.8097 2.94946 85.5696 3.72946 85.5696 5.28946V7.37266C85.5696 7.93786 85.5979 8.38786 85.6532 8.72146ZM84.3154 6.77746V5.90506C82.8939 5.88106 82.1832 6.26146 82.1832 7.04506C82.1832 7.34026 82.2643 7.56106 82.4303 7.70866C82.5963 7.85626 82.8078 7.92946 83.0599 7.92946C83.3427 7.92946 83.6071 7.84186 83.8481 7.66786C84.0903 7.49266 84.2391 7.27066 84.2945 6.99826C84.308 6.93706 84.3154 6.86266 84.3154 6.77746Z" fill="white"/>
<path id="d" d="M92.9786 8.72152H91.8351L91.7748 7.81312H91.7392C91.374 8.50432 90.7518 8.84992 89.8775 8.84992C89.1791 8.84992 88.5975 8.58232 88.1364 8.04712C87.6752 7.51192 87.4453 6.81712 87.4453 5.96392C87.4453 5.04832 87.6949 4.30672 88.1966 3.74032C88.6823 3.21232 89.2775 2.94832 89.9857 2.94832C90.7641 2.94832 91.3088 3.20392 91.6187 3.71632H91.6433V0.469116H92.9331V7.19752C92.9331 7.74832 92.9479 8.25592 92.9786 8.72152ZM91.6433 6.33592V5.39272C91.6433 5.22952 91.631 5.09752 91.6076 4.99672C91.535 4.69432 91.3789 4.43992 91.1416 4.23472C90.9018 4.02952 90.6128 3.92632 90.2796 3.92632C89.7988 3.92632 89.4225 4.11232 89.1459 4.48552C88.8717 4.85872 88.7327 5.33512 88.7327 5.91712C88.7327 6.47632 88.8643 6.92992 89.1287 7.27912C89.4078 7.65112 89.7841 7.83712 90.255 7.83712C90.678 7.83712 91.0162 7.68232 91.2731 7.37152C91.5215 7.08472 91.6433 6.73912 91.6433 6.33592Z" fill="white"/>
<path id="o_3" d="M103.998 5.84626C103.998 6.71626 103.743 7.42906 103.234 7.98826C102.7 8.56306 101.994 8.84986 101.11 8.84986C100.261 8.84986 99.5831 8.57506 99.0765 8.02306C98.5724 7.47226 98.3203 6.77746 98.3203 5.93986C98.3203 5.06386 98.5798 4.34506 99.1011 3.78706C99.6225 3.22906 100.323 2.94946 101.207 2.94946C102.057 2.94946 102.742 3.22426 103.259 3.77506C103.75 4.31026 103.998 5.00146 103.998 5.84626ZM102.662 5.88706C102.662 5.36506 102.547 4.91746 102.317 4.54426C102.045 4.09306 101.661 3.86746 101.16 3.86746C100.643 3.86746 100.25 4.09306 99.9779 4.54426C99.7467 4.91746 99.6323 5.37226 99.6323 5.90986C99.6323 6.43186 99.7479 6.87946 99.9779 7.25266C100.257 7.70386 100.646 7.92946 101.147 7.92946C101.639 7.92946 102.026 7.70026 102.304 7.24066C102.542 6.86026 102.662 6.40906 102.662 5.88706Z" fill="white"/>
<path id="n_2" d="M110.927 8.72152H109.64V5.48152C109.64 4.48312 109.251 3.98392 108.47 3.98392C108.088 3.98392 107.779 4.12072 107.541 4.39552C107.302 4.67032 107.183 4.99432 107.183 5.36512V8.72032H105.893V4.68112C105.893 4.18432 105.878 3.64552 105.848 3.06232H106.979L107.039 3.94672H107.075C107.226 3.67192 107.45 3.44512 107.743 3.26392C108.093 3.05272 108.483 2.94592 108.912 2.94592C109.452 2.94592 109.902 3.11632 110.26 3.45832C110.706 3.87712 110.927 4.50232 110.927 5.33272V8.72152Z" fill="white"/>
<path id="t" d="M119.601 4.00668H118.182V6.75468C118.182 7.45308 118.434 7.80228 118.933 7.80228C119.164 7.80228 119.356 7.78308 119.507 7.74348L119.54 8.69748C119.286 8.79108 118.951 8.83788 118.539 8.83788C118.03 8.83788 117.634 8.68668 117.348 8.38428C117.06 8.08188 116.918 7.57308 116.918 6.85908V4.00668H116.07V3.06468H116.918V2.02788L118.18 1.65588V3.06348H119.599V4.00668H119.601Z" fill="white"/>
<path id="h" d="M126.421 8.72152H125.131V5.50552C125.131 4.49152 124.742 3.98392 123.964 3.98392C123.366 3.98392 122.958 4.27792 122.734 4.86592C122.696 4.98952 122.674 5.14072 122.674 5.31832V8.72032H121.387V0.469116H122.674V3.87832H122.699C123.105 3.25792 123.686 2.94832 124.44 2.94832C124.974 2.94832 125.415 3.11872 125.765 3.46072C126.202 3.88672 126.421 4.52032 126.421 5.35792V8.72152Z" fill="white"/>
<path id="e" d="M133.458 5.62552C133.458 5.85112 133.441 6.04072 133.41 6.19552H129.545C129.563 6.75472 129.747 7.18072 130.105 7.47592C130.432 7.73992 130.854 7.87192 131.37 7.87192C131.942 7.87192 132.463 7.78312 132.933 7.60432L133.135 8.47792C132.585 8.71072 131.938 8.82712 131.189 8.82712C130.292 8.82712 129.585 8.56912 129.073 8.05312C128.559 7.53712 128.305 6.84472 128.305 5.97592C128.305 5.12272 128.542 4.41232 129.02 3.84592C129.52 3.24112 130.195 2.93872 131.047 2.93872C131.88 2.93872 132.514 3.24112 132.942 3.84592C133.287 4.32592 133.458 4.91992 133.458 5.62552ZM132.228 5.30032C132.238 4.92712 132.153 4.60552 131.979 4.33432C131.755 3.98512 131.414 3.80992 130.953 3.80992C130.533 3.80992 130.19 3.98032 129.928 4.32232C129.714 4.59472 129.587 4.91992 129.545 5.30032H132.228Z" fill="white"/>
</g>
<g id="App Store">
<path id="A" d="M50.3813 30.4066H47.5888L46.0591 25.7158H40.7422L39.2851 30.4066H36.5664L41.8341 14.437H45.0877L50.3813 30.4066ZM45.598 23.7478L44.2147 19.5778C44.0684 19.1518 43.7942 18.1486 43.3896 16.5694H43.3404C43.1794 17.2486 42.9199 18.2518 42.5633 19.5778L41.2046 23.7478H45.598Z" fill="white"/>
<path id="p" d="M63.9294 24.5074C63.9294 26.4658 63.3871 28.0138 62.3026 29.1502C61.3312 30.1618 60.1249 30.667 58.685 30.667C57.1308 30.667 56.0143 30.1222 55.3343 29.0326H55.2851V35.0986H52.6635V22.6822C52.6635 21.451 52.6303 20.1874 52.5664 18.8914H54.872L55.0183 20.7166H55.0675C55.9417 19.3414 57.2685 18.655 59.049 18.655C60.441 18.655 61.603 19.1914 62.5326 20.2654C63.4646 21.3406 63.9294 22.7542 63.9294 24.5074ZM61.2587 24.601C61.2587 23.4802 61.0004 22.5562 60.4815 21.829C59.9147 21.0706 59.1535 20.6914 58.1993 20.6914C57.5526 20.6914 56.9648 20.9026 56.4397 21.319C55.9135 21.739 55.5692 22.2874 55.4081 22.9666C55.3269 23.2834 55.2863 23.5426 55.2863 23.7466V25.6666C55.2863 26.5042 55.5495 27.211 56.0758 27.7882C56.602 28.3654 57.2857 28.6534 58.1268 28.6534C59.1142 28.6534 59.8827 28.2814 60.4323 27.5398C60.9832 26.797 61.2587 25.8178 61.2587 24.601Z" fill="white"/>
<path id="p_2" d="M77.4985 24.5074C77.4985 26.4658 76.9562 28.0138 75.8705 29.1502C74.9003 30.1618 73.694 30.667 72.2541 30.667C70.6999 30.667 69.5834 30.1222 68.9046 29.0326H68.8554V35.0986H66.2339V22.6822C66.2339 21.451 66.2007 20.1874 66.1367 18.8914H68.4423L68.5886 20.7166H68.6378C69.5108 19.3414 70.8376 18.655 72.6193 18.655C74.01 18.655 75.172 19.1914 76.1041 20.2654C77.0325 21.3406 77.4985 22.7542 77.4985 24.5074ZM74.8277 24.601C74.8277 23.4802 74.5683 22.5562 74.0494 21.829C73.4825 21.0706 72.7238 20.6914 71.7684 20.6914C71.1204 20.6914 70.5339 20.9026 70.0076 21.319C69.4813 21.739 69.1382 22.2874 68.9772 22.9666C68.8972 23.2834 68.8554 23.5426 68.8554 23.7466V25.6666C68.8554 26.5042 69.1186 27.211 69.6424 27.7882C70.1687 28.3642 70.8524 28.6534 71.6959 28.6534C72.6833 28.6534 73.4518 28.2814 74.0014 27.5398C74.5523 26.797 74.8277 25.8178 74.8277 24.601Z" fill="white"/>
<path id="S" d="M92.6714 25.9282C92.6714 27.2866 92.1881 28.3918 91.2179 29.245C90.1518 30.1774 88.6677 30.643 86.7605 30.643C84.9997 30.643 83.5881 30.3118 82.5195 29.6482L83.127 27.5158C84.2779 28.195 85.5407 28.5358 86.9167 28.5358C87.9041 28.5358 88.6726 28.3174 89.2247 27.883C89.7743 27.4486 90.0486 26.8654 90.0486 26.1382C90.0486 25.4902 89.8223 24.9442 89.3686 24.5014C88.9173 24.0586 88.1635 23.647 87.111 23.2666C84.2459 22.2238 82.8146 20.6962 82.8146 18.6874C82.8146 17.3746 83.3163 16.2982 84.3209 15.4606C85.3219 14.6218 86.6572 14.203 88.3271 14.203C89.8162 14.203 91.0532 14.4562 92.0406 14.9614L91.3852 17.047C90.4629 16.5574 89.4202 16.3126 88.2533 16.3126C87.3311 16.3126 86.6105 16.5346 86.0941 16.9762C85.6576 17.371 85.4387 17.8522 85.4387 18.4222C85.4387 19.0534 85.6883 19.5754 86.19 19.9858C86.6265 20.365 87.4196 20.7754 88.5705 21.2182C89.9785 21.7714 91.0126 22.4182 91.6778 23.1598C92.3406 23.899 92.6714 24.8242 92.6714 25.9282Z" fill="white"/>
<path id="t_2" d="M101.342 20.8114H98.4526V26.4022C98.4526 27.8242 98.9616 28.5346 99.9822 28.5346C100.451 28.5346 100.839 28.495 101.147 28.4158L101.219 30.3586C100.703 30.547 100.023 30.6418 99.1805 30.6418C98.1452 30.6418 97.3361 30.3334 96.752 29.7178C96.1704 29.101 95.8777 28.0666 95.8777 26.6134V20.809H94.1562V18.889H95.8777V16.7806L98.4526 16.0222V18.889H101.342V20.8114Z" fill="white"/>
<path id="o_4" d="M114.378 24.5543C114.378 26.3242 113.859 27.7774 112.823 28.9138C111.738 30.0838 110.296 30.667 108.5 30.667C106.769 30.667 105.39 30.1066 104.362 28.9858C103.334 27.865 102.82 26.4502 102.82 24.745C102.82 22.9606 103.349 21.4991 104.41 20.3627C105.469 19.2251 106.898 18.6562 108.694 18.6562C110.426 18.6562 111.819 19.2167 112.87 20.3387C113.876 21.4271 114.378 22.8323 114.378 24.5543ZM111.658 24.637C111.658 23.575 111.425 22.6643 110.954 21.9047C110.405 20.9855 109.619 20.527 108.601 20.527C107.547 20.527 106.747 20.9867 106.197 21.9047C105.726 22.6655 105.494 23.5906 105.494 24.685C105.494 25.747 105.726 26.6578 106.197 27.4162C106.764 28.3354 107.556 28.7938 108.577 28.7938C109.578 28.7938 110.364 28.3258 110.931 27.3922C111.414 26.6182 111.658 25.6978 111.658 24.637Z" fill="white"/>
<path id="r" d="M122.899 21.1414C122.639 21.0946 122.363 21.0706 122.073 21.0706C121.15 21.0706 120.437 21.4102 119.935 22.0906C119.499 22.6906 119.28 23.449 119.28 24.3646V30.4066H116.66L116.684 22.5178C116.684 21.1906 116.651 19.9822 116.586 18.8926H118.869L118.965 21.0958H119.038C119.315 20.3386 119.751 19.729 120.349 19.2718C120.933 18.8602 121.564 18.655 122.243 18.655C122.486 18.655 122.705 18.6718 122.899 18.7018V21.1414Z" fill="white"/>
<path id="e_2" d="M134.623 24.1042C134.623 24.5626 134.592 24.949 134.527 25.2646H126.662C126.693 26.4022 127.073 27.2722 127.803 27.8722C128.466 28.4086 129.323 28.6774 130.376 28.6774C131.54 28.6774 132.603 28.4962 133.558 28.1326L133.969 29.9086C132.852 30.3838 131.534 30.6202 130.013 30.6202C128.183 30.6202 126.747 30.0946 125.702 29.0446C124.659 27.9946 124.137 26.5846 124.137 24.8158C124.137 23.0794 124.622 21.6334 125.595 20.4802C126.613 19.249 127.989 18.6334 129.72 18.6334C131.421 18.6334 132.708 19.249 133.583 20.4802C134.275 21.4582 134.623 22.6678 134.623 24.1042ZM132.123 23.4406C132.14 22.6822 131.969 22.027 131.614 21.4738C131.16 20.7622 130.463 20.407 129.525 20.407C128.668 20.407 127.971 20.7538 127.438 21.4498C127.002 22.003 126.742 22.6666 126.662 23.4394H132.123V23.4406Z" fill="white"/>
</g>
</g>
</svg>
