<svg width="145" height="35" viewBox="0 0 145 35" fill="none" xmlns="http://www.w3.org/2000/svg">
<g id="Group">
<g id="icon">
<path id="Vector" d="M1.10347 0.602069C0.673691 1.12119 0.456764 1.78575 0.496911 2.4603V31.8203C0.456764 32.4949 0.673691 33.1595 1.10347 33.6786L1.19577 33.7715L17.5332 17.3394V16.9545L1.19577 0.509155L1.10347 0.602069Z" fill="url(#paint0_linear_11073_2799)"/>
<path id="Vector_2" d="M22.9414 22.8212L17.5352 17.3394V16.9545L22.9414 11.4595L23.0601 11.5258L29.5344 15.229C31.3805 16.2776 31.3805 18.0031 29.5344 19.0649L23.0865 22.7549L22.9414 22.8212Z" fill="url(#paint1_linear_11073_2799)"/>
<path id="Vector_3" d="M23.0997 22.7415L17.5352 17.1403L1.10547 33.6785C1.48175 34.0115 1.96176 34.2017 2.46255 34.2162C2.96333 34.2307 3.45344 34.0687 3.84816 33.7582L23.1129 22.7415" fill="url(#paint2_linear_11073_2799)"/>
<path id="Vector_4" d="M23.0973 11.539L3.83254 0.522299C3.43781 0.211727 2.94771 0.0497135 2.44692 0.0642547C1.94613 0.0787959 1.46612 0.26898 1.08984 0.601939L17.5328 17.1402L23.0973 11.539Z" fill="url(#paint3_linear_11073_2799)"/>
<path id="Vector_5" opacity="0.2" d="M22.9415 22.6222L3.83497 33.5725C3.45428 33.859 2.99171 34.0138 2.51637 34.0138C2.04104 34.0138 1.57846 33.859 1.19777 33.5725L1.10547 33.6654L1.19777 33.7583C1.5776 34.0469 2.04051 34.203 2.51637 34.203C2.99224 34.203 3.45514 34.0469 3.83497 33.7583L23.0997 22.7417L22.9415 22.6222Z" fill="black"/>
<path id="Vector_6" opacity="0.12" d="M1.10347 33.4927C0.673691 32.9736 0.456764 32.309 0.496911 31.6345V31.8336C0.456764 32.5081 0.673691 33.1727 1.10347 33.6918L1.19577 33.5989L1.10347 33.4927ZM29.5325 18.8658L22.9395 22.622L23.0582 22.7415L29.5325 19.0516C29.8999 18.8779 30.2152 18.6097 30.4467 18.2741C30.6783 17.9385 30.8177 17.5474 30.8511 17.1403C30.777 17.5102 30.6196 17.8581 30.391 18.1572C30.1624 18.4563 29.8687 18.6987 29.5325 18.8658Z" fill="black"/>
<path id="Vector_7" opacity="0.25" d="M3.83363 0.707681L29.5332 15.4143C29.8694 15.5813 30.163 15.8237 30.3916 16.1228C30.6202 16.4219 30.7776 16.7698 30.8518 17.1398C30.8184 16.7326 30.6789 16.3415 30.4474 16.0059C30.2159 15.6703 29.9005 15.4021 29.5332 15.2284L3.83363 0.521856C1.98758 -0.526717 0.484375 0.349307 0.484375 2.473V2.6721C0.523933 0.53513 2.00077 -0.340893 3.83363 0.707681Z" fill="white"/>
</g>
<g id="GET IT ON">
<path id="G" d="M47.7233 5.89434C47.7233 6.89634 47.4159 7.69885 46.8103 8.29735C46.1141 9.00685 45.2072 9.36384 44.0959 9.36384C43.0338 9.36384 42.127 9.00084 41.383 8.28534C40.6376 7.55934 40.2656 6.66834 40.2656 5.60184C40.2656 4.53534 40.6376 3.64434 41.383 2.92434C42.127 2.20284 43.0338 1.83984 44.0959 1.83984C44.6247 1.83984 45.1288 1.94634 45.6099 2.14434C46.0895 2.34384 46.4799 2.61384 46.7627 2.94684L46.1202 3.57984C45.6268 3.01134 44.9551 2.73084 44.0959 2.73084C43.3213 2.73084 42.6496 2.99484 42.0793 3.52734C41.5152 4.06134 41.2324 4.75284 41.2324 5.60184C41.2324 6.45084 41.5152 7.14834 42.0793 7.68234C42.6496 8.20884 43.3213 8.47884 44.0959 8.47884C44.9182 8.47884 45.6099 8.20884 46.1556 7.67634C46.5152 7.32384 46.7196 6.83784 46.7734 6.21684H44.0959V5.34984H47.668C47.711 5.53734 47.7233 5.71884 47.7233 5.89434Z" fill="white" stroke="white" stroke-width="0.16" stroke-miterlimit="10"/>
<path id="E" d="M53.3912 2.88838H50.0358V5.16838H53.0607V6.03538H50.0358V8.31538H53.3912V9.19888H49.0859V2.00488H53.3912V2.88838Z" fill="white" stroke="white" stroke-width="0.16" stroke-miterlimit="10"/>
<path id="T" d="M57.3908 9.19888H56.4409V2.88838H54.3828V2.00488H59.4504V2.88838H57.3908V9.19888Z" fill="white" stroke="white" stroke-width="0.16" stroke-miterlimit="10"/>
<path id="I" d="M63.1172 9.19888V2.00488H64.0655V9.19888H63.1172Z" fill="white" stroke="white" stroke-width="0.16" stroke-miterlimit="10"/>
<path id="T_2" d="M68.2697 9.19888H67.3275V2.88838H65.2617V2.00488H70.3355V2.88838H68.2697V9.19888Z" fill="white" stroke="white" stroke-width="0.16" stroke-miterlimit="10"/>
<path id="O" d="M79.9307 8.27334C79.2036 9.00084 78.3029 9.36384 77.2285 9.36384C76.148 9.36384 75.2473 9.00084 74.5203 8.27334C73.7948 7.54734 73.4336 6.65634 73.4336 5.60184C73.4336 4.54734 73.7948 3.65634 74.5203 2.93034C75.2473 2.20284 76.148 1.83984 77.2285 1.83984C78.2968 1.83984 79.1975 2.20284 79.9245 2.93634C80.6561 3.66834 81.0173 4.55334 81.0173 5.60184C81.0173 6.65634 80.6561 7.54734 79.9307 8.27334ZM75.2227 7.67034C75.7699 8.20884 76.4354 8.47884 77.2285 8.47884C78.0155 8.47884 78.6872 8.20884 79.2282 7.67034C79.7739 7.13184 80.0505 6.44034 80.0505 5.60184C80.0505 4.76334 79.7739 4.07184 79.2282 3.53334C78.6872 2.99484 78.0155 2.72484 77.2285 2.72484C76.4354 2.72484 75.7699 2.99484 75.2227 3.53334C74.6771 4.07184 74.4004 4.76334 74.4004 5.60184C74.4004 6.44034 74.6771 7.13184 75.2227 7.67034Z" fill="white" stroke="white" stroke-width="0.16" stroke-miterlimit="10"/>
<path id="N" d="M82.3477 9.19888V2.00488H83.5004L87.0848 7.59988H87.1263L87.0848 6.21688V2.00488H88.0332V9.19888H87.0433L83.2899 3.32788H83.2484L83.2899 4.71688V9.19888H82.3477Z" fill="white" stroke="white" stroke-width="0.16" stroke-miterlimit="10"/>
</g>
<g id="Google Play">
<path id="Google Play_2" d="M73.1996 19.7049C70.3115 19.7049 67.9522 21.8499 67.9522 24.8094C67.9522 27.7449 70.3115 29.9124 73.1996 29.9124C76.0939 29.9124 78.4532 27.7449 78.4532 24.8094C78.4532 21.8499 76.0939 19.7049 73.1996 19.7049ZM73.1996 27.9024C71.6149 27.9024 70.2516 26.6259 70.2516 24.8094C70.2516 22.9689 71.6149 21.7149 73.1996 21.7149C74.7843 21.7149 76.1538 22.9689 76.1538 24.8094C76.1538 26.6259 74.7843 27.9024 73.1996 27.9024ZM61.7502 19.7049C58.856 19.7049 56.5028 21.8499 56.5028 24.8094C56.5028 27.7449 58.856 29.9124 61.7502 29.9124C64.6429 29.9124 66.9977 27.7449 66.9977 24.8094C66.9977 21.8499 64.6429 19.7049 61.7502 19.7049ZM61.7502 27.9024C60.164 27.9024 58.796 26.6259 58.796 24.8094C58.796 22.9689 60.164 21.7149 61.7502 21.7149C63.3349 21.7149 64.6983 22.9689 64.6983 24.8094C64.6983 26.6259 63.3349 27.9024 61.7502 27.9024ZM48.1259 21.2694V23.4384H53.4333C53.2781 24.6504 52.8631 25.5414 52.2267 26.1624C51.4521 26.9124 50.2455 27.7449 48.1259 27.7449C44.8597 27.7449 42.3021 25.1724 42.3021 21.9849C42.3021 18.7974 44.8597 16.2249 48.1259 16.2249C49.892 16.2249 51.177 16.8984 52.1253 17.7714L53.6915 16.2429C52.3651 15.0069 50.6006 14.0574 48.1259 14.0574C43.647 14.0574 39.8828 17.6139 39.8828 21.9849C39.8828 26.3559 43.647 29.9124 48.1259 29.9124C50.5468 29.9124 52.3651 29.1384 53.7945 27.6864C55.2593 26.2569 55.7158 24.2469 55.7158 22.6239C55.7158 22.1199 55.6728 21.6564 55.5959 21.2694H48.1259ZM103.837 22.9509C103.405 21.8094 102.073 19.7049 99.3584 19.7049C96.6686 19.7049 94.4292 21.7734 94.4292 24.8094C94.4292 27.6684 96.6456 29.9124 99.6167 29.9124C102.019 29.9124 103.405 28.4829 103.976 27.6504L102.193 26.4909C101.598 27.3399 100.788 27.9024 99.6167 27.9024C98.4531 27.9024 97.6185 27.3819 97.0836 26.3559L104.079 23.5314L103.837 22.9509ZM96.7055 24.6504C96.6456 22.6824 98.2718 21.6744 99.4368 21.6744C100.35 21.6744 101.124 22.1199 101.383 22.7574L96.7055 24.6504ZM91.02 29.6019H93.3194V14.6019H91.02V29.6019ZM87.2543 20.8419H87.1774C86.661 20.2449 85.6757 19.7049 84.4277 19.7049C81.8086 19.7049 79.4139 21.9489 79.4139 24.8259C79.4139 27.6864 81.8086 29.9124 84.4277 29.9124C85.6757 29.9124 86.661 29.3679 87.1774 28.7529H87.2543V29.4849C87.2543 31.4364 86.186 32.4849 84.463 32.4849C83.0582 32.4849 82.1867 31.4949 81.827 30.6624L79.8273 31.4769C80.4037 32.8299 81.93 34.4949 84.463 34.4949C87.159 34.4949 89.4338 32.9469 89.4338 29.1804V20.0154H87.2543V20.8419ZM84.6244 27.9024C83.0397 27.9024 81.7133 26.6079 81.7133 24.8259C81.7133 23.0274 83.0397 21.7149 84.6244 21.7149C86.186 21.7149 87.4172 23.0274 87.4172 24.8259C87.4172 26.6079 86.186 27.9024 84.6244 27.9024ZM114.603 14.6019H109.103V29.6019H111.397V23.9184H114.603C117.15 23.9184 119.647 22.1199 119.647 19.2594C119.647 16.4004 117.143 14.6019 114.603 14.6019ZM114.663 21.8319H111.397V16.6884H114.663C116.375 16.6884 117.353 18.0759 117.353 19.2594C117.353 20.4204 116.375 21.8319 114.663 21.8319ZM128.839 19.6764C127.182 19.6764 125.459 20.3904 124.75 21.9729L126.785 22.8054C127.223 21.9729 128.029 21.7029 128.88 21.7029C130.07 21.7029 131.277 22.4004 131.295 23.6319V23.7894C130.88 23.5554 129.992 23.2089 128.899 23.2089C126.707 23.2089 124.474 24.3864 124.474 26.5839C124.474 28.5939 126.269 29.8884 128.287 29.8884C129.83 29.8884 130.682 29.2089 131.217 28.4184H131.295V29.5779H133.51V23.8239C133.51 21.1644 131.475 19.6764 128.839 19.6764ZM128.562 27.8964C127.812 27.8964 126.767 27.5334 126.767 26.6259C126.767 25.4649 128.07 25.0194 129.198 25.0194C130.208 25.0194 130.682 25.2369 131.295 25.5234C131.115 26.9124 129.89 27.8964 128.562 27.8964ZM141.579 20.0049L138.943 26.5074H138.865L136.14 20.0049H133.667L137.761 29.0919L135.425 34.1484H137.821L144.131 20.0049H141.579ZM120.908 29.6019H123.207V14.6019H120.908V29.6019Z" fill="white"/>
</g>
</g>
<defs>
<linearGradient id="paint0_linear_11073_2799" x1="16.0828" y1="2.15502" x2="-6.18895" y2="24.2807" gradientUnits="userSpaceOnUse">
<stop stop-color="#00A0FF"/>
<stop offset="0.01" stop-color="#00A1FF"/>
<stop offset="0.26" stop-color="#00BEFF"/>
<stop offset="0.51" stop-color="#00D2FF"/>
<stop offset="0.76" stop-color="#00DFFF"/>
<stop offset="1" stop-color="#00E3FF"/>
</linearGradient>
<linearGradient id="paint1_linear_11073_2799" x1="31.9475" y1="17.1403" x2="0.0504967" y2="17.1403" gradientUnits="userSpaceOnUse">
<stop stop-color="#FFE000"/>
<stop offset="0.41" stop-color="#FFBD00"/>
<stop offset="0.78" stop-color="#FFA500"/>
<stop offset="1" stop-color="#FF9C00"/>
</linearGradient>
<linearGradient id="paint2_linear_11073_2799" x1="20.0801" y1="20.1931" x2="-10.1286" y2="50.1905" gradientUnits="userSpaceOnUse">
<stop stop-color="#FF3A44"/>
<stop offset="1" stop-color="#C31162"/>
</linearGradient>
<linearGradient id="paint3_linear_11073_2799" x1="-3.03738" y1="-9.16705" x2="10.4478" y2="4.22966" gradientUnits="userSpaceOnUse">
<stop stop-color="#32A071"/>
<stop offset="0.07" stop-color="#2DA771"/>
<stop offset="0.48" stop-color="#15CF74"/>
<stop offset="0.8" stop-color="#06E775"/>
<stop offset="1" stop-color="#00F076"/>
</linearGradient>
</defs>
</svg>
