<svg xmlns="http://www.w3.org/2000/svg" viewBox="0 0 240 216">
    <g>
        <path fill="#fff"
              d="M240,96a32,32,0,0,0-52.94-24.19c-16.75-8.9-36.76-14.28-57.66-15.52l5.19-31.18,21.83,3.36a24,24,0,1,0,2.44-15.81L129.22,8.1a8,8,0,0,0-9.11,6.59L113.2,56.17c-21.84.94-42.82,6.38-60.26,15.64a32,32,0,0,0-42.59,47.74A58.77,58.77,0,0,0,8,136c0,21.94,12,42.36,33.91,57.49C62.87,208,90.61,216,120,216s57.12-8,78.09-22.51C220,178.36,232,157.94,232,136a58.65,58.65,0,0,0-2.35-16.44A32.15,32.15,0,0,0,240,96ZM64,124a16,16,0,1,1,16,16A16,16,0,0,1,64,124Zm92.7,51.11a80.1,80.1,0,0,1-73.4,0,8,8,0,0,1,7.34-14.21,64.11,64.11,0,0,0,58.72,0,8,8,0,0,1,7.34,14.21ZM160,140a16,16,0,1,1,16-16A16,16,0,0,1,160,140Z"/>
    </g>
</svg>