<svg xmlns="http://www.w3.org/2000/svg" viewBox="0 0 588 448">
    <g>
        <path fill="#fff"
              d="M498.53,37.84a1.44,1.44,0,0,0-.76-.7A485.19,485.19,0,0,0,378.08,0a1.81,1.81,0,0,0-1.92.91,337.46,337.46,0,0,0-14.9,30.6,448.08,448.08,0,0,0-134.43,0A310.43,310.43,0,0,0,211.7.94,1.9,1.9,0,0,0,209.77,0,483.79,483.79,0,0,0,90.08,37.14a1.7,1.7,0,0,0-.78.67C13.07,151.65-7.81,262.69,2.43,372.35a2,2,0,0,0,.76,1.38A487.69,487.69,0,0,0,150,447.92a1.89,1.89,0,0,0,2.06-.68,347.3,347.3,0,0,0,30-48.84,1.86,1.86,0,0,0-.82-2.5l-.2-.09A321.66,321.66,0,0,1,135.23,374a1.9,1.9,0,0,1-.67-2.58,2,2,0,0,1,.49-.55c3.08-2.31,6.16-4.71,9.11-7.13a1.82,1.82,0,0,1,1.9-.26c96.23,43.92,200.41,43.92,295.5,0a1.81,1.81,0,0,1,1.92.23c2.94,2.43,6,4.85,9.13,7.16a1.88,1.88,0,0,1,.38,2.64,1.81,1.81,0,0,1-.54.49,300.76,300.76,0,0,1-45.89,21.83,1.87,1.87,0,0,0-1.08,2.42,1.54,1.54,0,0,0,.08.19,392.58,392.58,0,0,0,30,48.82,1.89,1.89,0,0,0,2.07.7A486.37,486.37,0,0,0,584.7,373.73a1.84,1.84,0,0,0,.76-1.35C597.73,245.59,564.93,135.47,498.53,37.84Zm-302,267.74c-29,0-52.84-26.59-52.84-59.24s23.41-59.24,52.84-59.24c29.67,0,53.31,26.82,52.84,59.24C249.33,279,225.92,305.58,196.49,305.58Zm195.38,0c-29,0-52.84-26.59-52.84-59.24s23.41-59.24,52.84-59.24c29.67,0,53.31,26.82,52.84,59.24C444.71,279,421.54,305.58,391.87,305.58Z"/>
    </g>
</svg>