<svg width="121" height="120" viewBox="0 0 121 120" fill="none" xmlns="http://www.w3.org/2000/svg">
<rect x="0.25" width="120" height="120" rx="24" fill="#0D1420"/>
<path d="M86.1997 85.0018C86.254 84.9698 86.3116 84.9434 86.3716 84.923C90.3413 83.9713 94.1846 82.6818 97.801 80.8198C99.4151 79.9892 100.937 79.0308 102.212 77.7496C103.047 76.9115 103.711 75.9732 103.974 74.8161C104.155 74.0198 104.082 73.237 103.809 72.4613C103.784 72.4701 103.76 72.4714 103.75 72.4835C102.514 73.9189 100.952 74.9469 99.2497 75.7942C96.9948 76.919 94.6029 77.6905 92.1391 78.2475C90.5795 78.6 88.9982 78.8573 87.4238 79.1531C87.2802 79.1753 87.1351 79.1865 86.9897 79.1867C86.827 79.196 86.6638 79.1819 86.5055 79.1448L86.7611 79.0928C90.881 78.2525 94.8717 77.046 98.6299 75.1954C99.8605 74.589 101.041 73.8962 102.056 72.986C102.505 72.5837 102.885 72.1109 103.298 71.6713C103.377 71.5875 103.373 71.5133 103.312 71.4119C102.741 70.458 101.954 69.6397 101.01 69.0181C100.977 69.0021 100.942 68.9931 100.905 68.9919C100.869 68.9907 100.833 68.9972 100.8 69.011C98.2996 70.2444 95.6146 70.9203 92.8698 71.3864C91.0411 71.6969 89.1962 71.9219 87.3562 72.1675C87.0146 72.2128 86.6582 72.1738 86.3009 72.1512C86.3546 72.1353 86.4069 72.1156 86.4614 72.1042C89.0226 71.5783 91.5807 71.0389 94.1004 70.347C96.0198 69.8198 97.9162 69.2264 99.7361 68.4273C99.8081 68.3958 99.8797 68.3623 99.9826 68.3154C99.8592 68.2357 99.7558 68.167 99.6502 68.1012C97.5999 66.8272 95.4 65.8382 93.1197 65.0113C93.0238 64.9815 92.9221 64.973 92.8222 64.9866C91.1122 65.1739 89.4039 65.3709 87.6934 65.5515C87.2755 65.5955 86.8523 65.5884 86.4313 65.6031C86.4134 65.6036 86.3955 65.6001 86.3792 65.5929C86.363 65.5856 86.3487 65.5747 86.3375 65.5612L91.8616 64.6191V64.5671C91.3887 64.4163 90.9176 64.2595 90.4425 64.1154C87.094 63.0995 83.6809 62.3481 80.2158 61.8079C78.2091 61.495 76.1972 61.2211 74.18 60.9861C72.5804 60.7975 70.9728 60.6584 69.3648 60.5494C67.1985 60.4027 65.0286 60.3013 62.8597 60.1899C60.7452 60.0809 58.6312 60.1316 56.519 60.2318C54.8429 60.3122 53.1656 60.3872 51.4931 60.5151C49.6037 60.6601 47.7174 60.8449 45.8333 61.0423C43.3215 61.305 40.8253 61.6797 38.3436 62.1365C35.0979 62.7341 31.8951 63.4909 28.7673 64.5252C28.716 64.5401 28.6727 64.5733 28.646 64.6178L34.1679 65.5595V65.5993C33.9136 65.5993 33.6575 65.6182 33.4053 65.596C32.3422 65.5025 31.2796 65.4053 30.2182 65.2921C29.3597 65.2008 28.5042 65.0826 27.6444 64.9824C27.5585 64.9715 27.4712 64.9798 27.3892 65.0067C24.9724 65.8868 22.6464 66.9399 20.494 68.3267C20.4643 68.3459 20.4364 68.3686 20.3671 68.4176C24.719 70.3588 29.3038 71.4031 33.9746 72.165C33.9746 72.1822 33.9707 72.1994 33.969 72.2161C33.4712 72.1742 32.97 72.1604 32.477 72.0904C30.6967 71.839 28.9117 71.6051 27.1414 71.2967C24.9244 70.9103 22.7546 70.3441 20.6851 69.4615C20.3535 69.3199 20.0307 69.1556 19.7018 69.0123C19.6429 68.9863 19.54 68.9825 19.492 69.0152C18.5445 69.6669 17.7208 70.4355 17.0857 71.3818C16.9949 71.5171 17.008 71.6068 17.0979 71.7313C17.8042 72.7127 18.7342 73.465 19.7528 74.1234C21.6509 75.3504 23.7274 76.2301 25.865 76.9848C28.389 77.8762 30.969 78.5865 33.6091 79.0743C33.7277 79.0961 33.8464 79.1163 33.9646 79.1368L33.9581 79.2043C33.6173 79.1812 33.2736 79.1791 32.9368 79.1313C30.811 78.8292 28.6935 78.4839 26.6114 77.9621C24.4415 77.4173 22.3332 76.72 20.3832 75.6341C18.9157 74.8169 17.6175 73.8128 16.6141 72.4831C16.6019 72.4663 16.594 72.4466 16.5648 72.3934C16.3738 72.8368 16.2687 73.3101 16.2547 73.7898C16.2211 74.8978 16.6368 75.8642 17.2938 76.7485C18.1108 77.849 19.1665 78.7093 20.3099 79.4762C22.4305 80.8982 24.7491 81.9559 27.144 82.8662C29.2777 83.6775 31.4501 84.3774 33.6946 84.856C33.7677 84.8668 33.8373 84.8938 33.8979 84.9347C33.8472 84.9347 33.7966 84.9373 33.746 84.9347C31.2892 84.791 28.9439 84.154 26.6271 83.4143C24.1842 82.6344 21.8573 81.6186 19.7507 80.1774C18.3717 79.234 17.1555 78.1331 16.2638 76.7346C15.7752 75.969 15.3765 75.166 15.2757 74.2554C15.2703 74.2351 15.2616 74.2157 15.25 74.198V73.2341C15.3617 72.5879 15.534 71.9601 15.8455 71.3725C15.8601 71.3274 15.8555 71.2786 15.8328 71.2368C15.558 70.6995 15.3416 70.1442 15.25 69.5491V68.711C15.3595 68.3388 15.4332 67.952 15.5881 67.5983C15.7691 67.1855 16.0213 66.8021 16.2542 66.383C15.818 65.8105 15.4027 65.1869 15.2509 64.4385V63.7679C15.3857 63.1812 15.6339 62.6436 16.044 62.1851C16.2621 61.9424 16.4959 61.7145 16.7306 61.4727C16.1085 60.9279 15.5091 60.3541 15.2509 59.5394V58.9946C15.517 58.0727 16.2167 57.5078 17.0176 57.0396C18.1763 56.3628 19.4357 55.8909 20.703 55.4434C23.5228 54.4468 26.426 53.7323 29.3789 53.2244C31.7706 52.8125 34.1724 52.4537 36.5842 52.1477C38.6781 51.885 40.786 51.7161 42.8909 51.5413C47.0256 51.1981 51.1702 51.0443 55.3184 50.95C58.9004 50.8687 62.4828 50.8637 66.0638 50.971C68.9174 51.0567 71.7697 51.1793 74.6206 51.3385C76.8315 51.4642 79.0402 51.6423 81.244 51.8519C85.0092 52.2106 88.7534 52.7169 92.4554 53.475C95.5893 54.1166 98.6752 54.917 101.623 56.1478C102.396 56.4705 103.164 56.8033 103.852 57.2794C104.256 57.558 104.628 57.8694 104.903 58.2726C105.339 58.9142 105.387 59.5763 104.918 60.2087C104.617 60.6148 104.243 60.971 103.9 61.3486C103.856 61.3947 103.806 61.4324 103.759 61.4743C105.569 63.0643 105.718 64.5881 104.223 66.4136C104.376 66.6512 104.54 66.8809 104.677 67.126C105.414 68.4465 105.453 69.7746 104.69 71.0997C104.615 71.23 104.615 71.3277 104.683 71.4622C105.52 73.1251 105.384 74.7516 104.482 76.3545C103.657 77.8213 102.483 78.9834 101.104 79.9687C99.1926 81.3344 97.0629 82.2975 94.8328 83.0665C92.1949 83.9759 89.4894 84.6229 86.7066 84.9649C86.6647 84.9731 86.6236 84.9846 86.5836 84.9993L86.1997 85.0018ZM103.169 60.997C103.264 60.9165 103.387 60.8206 103.5 60.7133C104.345 59.9045 104.38 59.1028 103.593 58.2432C103.113 57.7185 102.54 57.2865 101.878 57.0095C100.848 56.5787 99.8068 56.1646 98.7441 55.818C95.6713 54.8156 92.5003 54.1966 89.3061 53.6807C86.2621 53.1904 83.202 52.8178 80.126 52.563C77.3777 52.3317 74.6241 52.1163 71.8684 51.9847C68.3929 51.8192 64.9135 51.6935 61.4345 51.6495C58.6901 51.6155 55.9418 51.6943 53.1983 51.7936C50.2441 51.9009 47.2922 52.0546 44.3427 52.2546C41.9966 52.4113 39.6544 52.6385 37.3153 52.8765C33.8848 53.2252 30.4778 53.7272 27.1074 54.43C24.6797 54.9363 22.2839 55.549 19.9727 56.437C19.1299 56.761 18.2888 57.0882 17.5734 57.6494C17.2004 57.9427 16.8418 58.247 16.5971 58.6527C16.3903 58.9946 16.2848 59.3576 16.3886 59.7544C16.5251 60.277 16.8911 60.6408 17.3095 60.9643C17.3431 60.9899 17.4404 60.9643 17.494 60.9358C17.9377 60.6844 18.3695 60.4124 18.8189 60.1706C21.3333 58.8186 24.0145 57.8564 26.7702 57.0765C31.0915 55.8541 35.5106 55.0934 39.9746 54.5729C42.2374 54.3093 44.5076 54.081 46.78 53.9364C49.954 53.7347 53.1317 53.585 56.3131 53.4875C60.9703 53.3434 65.6272 53.4477 70.2775 53.7197C72.7274 53.863 75.1742 54.055 77.6193 54.2612C80.0644 54.4673 82.4943 54.7951 84.9158 55.1831C87.7309 55.632 90.5198 56.1944 93.2646 56.9474C95.9143 57.6745 98.5029 58.5584 100.948 59.793C101.693 60.1685 102.414 60.5876 103.171 60.997H103.169ZM102.384 61.5602C102.166 61.4136 102.018 61.3021 101.861 61.2103C100.199 60.251 98.4279 59.5181 96.6013 58.9054C91.7246 57.271 86.6739 56.3909 81.5738 55.7367C79.8612 55.5171 78.142 55.3407 76.4223 55.1802C74.7027 55.0197 72.9782 54.8868 71.2538 54.7724C69.7685 54.673 68.2814 54.597 66.7924 54.5445C64.5924 54.4678 62.3907 54.3642 60.1903 54.3768C56.0045 54.3972 51.8243 54.5683 47.6498 54.8902C45.5559 55.0524 43.4619 55.2091 41.3815 55.4543C38.8971 55.7476 36.4189 56.1013 33.9476 56.486C31.2609 56.9068 28.6058 57.4964 25.9993 58.2508C23.6873 58.9179 21.4302 59.7176 19.3101 60.8428C18.9244 61.0473 18.5523 61.2753 18.1488 61.507C18.2234 61.5569 18.2504 61.5791 18.2797 61.5954C19.1822 62.0816 20.1402 62.4441 21.1174 62.7609C21.1972 62.7869 21.315 62.7538 21.3979 62.714C22.0544 62.4013 22.6979 62.0627 23.361 61.7652C27.767 59.7926 32.4177 58.5919 37.1779 57.7554C39.1973 57.4005 41.2323 57.1163 43.2687 56.862C45.0677 56.6373 46.8772 56.4777 48.6854 56.3293C50.1617 56.208 51.6405 56.1198 53.122 56.0644C55.5396 55.9781 57.959 55.8847 60.3775 55.8826C64.469 55.8788 68.5552 56.0556 72.6331 56.3917C75.2458 56.6071 77.8488 56.8946 80.4418 57.2773C83.1901 57.6842 85.9157 58.1992 88.6064 58.8765C91.9986 59.7305 95.2996 60.8227 98.4253 62.3686C98.7193 62.5141 99.0159 62.7458 99.3191 62.758C99.6345 62.7701 99.9656 62.5782 100.279 62.4504C100.966 62.1696 101.647 61.8741 102.387 61.5602H102.384ZM97.8577 63.2365C97.7308 63.1745 97.6579 63.1368 97.5833 63.1029C95.0095 61.9324 92.3236 61.0687 89.5792 60.3604C86.1609 59.4783 82.6867 58.8517 79.1863 58.379C77.5836 58.1624 75.9743 57.9847 74.3646 57.8195C72.942 57.6733 71.5155 57.5559 70.0894 57.4503C68.8004 57.3552 67.5095 57.2731 66.2183 57.2215C64.1928 57.1406 62.1656 57.0279 60.1397 57.0401C56.3322 57.0627 52.53 57.2638 48.7356 57.5765C45.7177 57.8246 42.7107 58.1569 39.7181 58.6091C36.8411 59.0441 33.9873 59.5834 31.1709 60.2971C28.3315 61.0171 25.5526 61.903 22.8938 63.1133C22.8266 63.1439 22.7629 63.1804 22.6647 63.2311C22.7668 63.263 22.8266 63.2852 22.8881 63.3002C23.9351 63.5567 24.982 63.8174 26.0316 64.0625C26.1768 64.0891 26.3269 64.0761 26.4648 64.0248C27.4716 63.6674 28.4645 63.2705 29.4788 62.9352C34.2547 61.3553 39.1824 60.4145 44.18 59.8068C46.2399 59.5554 48.3081 59.3458 50.3789 59.2155C53.1983 59.0391 56.0234 58.9221 58.848 58.8467C61.6526 58.7709 64.4563 58.8886 67.2583 59.0269C70.4153 59.182 73.5649 59.428 76.6941 59.855C78.8343 60.147 80.9663 60.4928 83.0902 60.8926C86.8645 61.6051 90.5499 62.6222 94.1026 64.0538C94.2021 64.0896 94.3103 64.0969 94.414 64.0747C95.0017 63.949 95.5884 63.8174 96.1721 63.6749C96.7213 63.5433 97.2623 63.3954 97.8608 63.237L97.8577 63.2365ZM25.0741 64.6036C23.9547 64.3287 22.8244 64.0487 21.6915 63.7784C21.613 63.76 21.503 63.7939 21.4297 63.8375C20.6253 64.3105 19.8237 64.788 19.0248 65.2699C18.4468 65.6198 17.987 66.0917 17.5542 66.611C18.0652 67.0704 18.6317 67.4693 19.2416 67.7991C19.2904 67.8259 19.4056 67.7869 19.4649 67.7454C20.669 66.9037 21.9364 66.149 23.2567 65.4874C23.8692 65.1815 24.4869 64.8902 25.0771 64.604L25.0741 64.6036ZM95.3956 64.5998C95.4671 64.6333 95.5304 64.6648 95.5949 64.6937C97.3124 65.4681 98.964 66.3536 100.524 67.3942C100.713 67.5199 100.909 67.7295 101.102 67.7295C101.309 67.7295 101.524 67.538 101.721 67.4085C102.125 67.1428 102.52 66.8637 102.972 66.5519C102.532 66.1579 102.169 65.7577 101.731 65.4577C100.983 64.9435 100.182 64.5009 99.4164 64.0102C99.0831 63.7964 98.7769 63.7721 98.3851 63.8798C97.4053 64.1497 96.4059 64.3618 95.3978 64.6002L95.3956 64.5998ZM20.2358 63.3556L17.5354 62.0983C16.2643 63.2718 15.9829 64.6547 16.8462 65.782C17.8626 64.8114 19.0575 64.076 20.2379 63.356L20.2358 63.3556ZM100.266 63.3556C101.436 64.068 102.618 64.7985 103.625 65.7523C103.978 65.3948 104.208 64.6627 104.145 64.1485C104.039 63.2898 103.539 62.6473 102.974 62.095L100.266 63.3556ZM17.0591 67.2748C16.4483 68.2353 16.1591 69.247 16.4435 70.3278L18.5266 68.3719L17.0591 67.2748ZM103.989 70.2502C104.263 69.1979 104.017 68.2123 103.432 67.2853L101.972 68.3749L103.989 70.2502Z" fill="url(#paint0_radial_12153_16075)"/>
<path d="M89.9817 49.2091H91.8124L88.0595 35.7977H86.219L79.6046 47.9255H81.6522L86.9153 38.2321L89.9817 49.2091Z" fill="white"/>
<path d="M56.0379 37.037V47.3501H64.0729V46.0222H57.9468V41.5517H62.9187V40.1796H57.9468V37.3469C57.9468 36.7272 58.1687 36.2403 58.9234 36.2403H64.0729V35.0895H57.7692C56.5706 35.0895 56.0379 36.2403 56.0379 37.037Z" fill="white"/>
<path d="M66.5589 47.3501H68.2014V36.8157C68.175 36.1204 68.1409 35.7373 67.9794 35.0895H67.0028L66.5589 47.3501Z" fill="white"/>
<path d="M72.1079 42.7468L75.7036 47.8369H77.3017L77.5681 35.0895H75.7036L75.4817 44.7829L72.9069 41.0649L72.1079 42.7468Z" fill="white"/>
<path d="M43.6581 38.8075L43.9327 47.6156H45.6261L45.4888 42.437H48.4636C49.4705 42.437 51.0053 41.3747 51.6673 40.1796C52.3293 38.9845 52.0334 37.6124 51.6673 36.8157C51.3011 36.019 49.8824 35.001 48.6924 35.001H43.2462L44.5277 36.2403H47.8686C48.7382 36.2403 50.5689 36.5944 50.5689 38.6305C50.5689 40.6665 48.3263 41.0206 47.8686 41.0206H45.4888L45.3972 38.8075H43.6581Z" fill="white"/>
<path d="M48.6924 43.7648L51.6673 47.3501H53.8183L50.7519 43.7648H48.6924Z" fill="white"/>
<path d="M28.6924 49.2533H30.5231L33.5894 38.2764L38.8526 47.9697H40.9002L34.2858 35.842H32.4453L28.6924 49.2533Z" fill="white"/>
<path d="M47.2649 79.1622H48.834L52.7793 69.0027L56.6797 78.8313L58.3833 78.8313L53.7207 67.2363L51.8084 67.2363L47.2649 79.1622Z" fill="white"/>
<path d="M44.8439 69.7404L45.6509 68.5778C45.6509 68.5778 43.7679 67.4599 42.7368 67.2363C41.7058 67.0127 39.1503 66.8785 37.5362 68.3542C35.9221 69.8299 35.6165 71.8422 35.6532 73.0495C35.6899 74.2569 36.0568 75.93 37.1776 77.1636C38.2984 78.3971 39.4192 79.0073 41.4815 79.0864C43.5438 79.1655 45.8303 77.9238 45.8303 77.9238V75.8667H44.3508V77.1636C44.3508 77.1636 42.7368 77.7002 42.0644 77.7002C41.3919 77.7002 40.1814 77.7002 39.1951 77.1636C38.2088 76.6269 37.1776 75.2854 37.1776 73.0495C37.1776 70.8137 38.0604 69.6957 38.8812 69.0697C39.7019 68.4436 41.2573 68.3989 42.3781 68.5778C43.4989 68.7567 44.8439 69.7404 44.8439 69.7404Z" fill="white"/>
<path d="M42.0644 73.0495V74.3911H44.4852L45.6509 73.6309V73.0495H42.0644Z" fill="white"/>
<path d="M59.0558 78.8313V67.2363L59.818 67.2363L60.1766 68.0382V78.8313H59.0558Z" fill="white"/>
<path d="M63.8977 75.9562L67.2154 67.2363H68.5603V79.1622H67.2154V70.7243L64.3909 77.9238H63.5839L60.9836 73.0943L61.6113 71.7528L63.8977 75.9562Z" fill="white"/>
<path d="M69.9053 79.1622H75.599V77.9238H71.3399V72.1552H74.7921V71.082H71.3399V68.0382H75.599V67.0127H69.9053V79.1622Z" fill="white"/>
<path d="M83.4896 69.338L84.3862 68.4437C84.3862 68.4437 83.8034 67.2363 81.0686 67.2363C78.3338 67.2363 77.3923 69.2039 77.6165 71.082C77.8407 72.9601 80.9341 73.6756 80.9341 73.6756C80.9341 73.6756 83.2206 74.1228 83.2206 75.7326C83.2206 77.3424 81.3824 77.879 80.172 77.7002C78.9615 77.5213 77.751 76.5375 77.751 76.5375L76.944 77.566C76.944 77.566 78.3787 79.1622 80.6203 79.1622C82.8619 79.1622 84.6104 77.7002 84.6104 75.7326C84.6104 73.765 83.0413 72.826 81.8756 72.513C80.71 72.1999 79.0063 71.708 78.9615 70.5007C78.9167 69.2933 79.5443 68.4437 81.0686 68.4437C82.5929 68.4437 83.4896 69.338 83.4896 69.338Z" fill="white"/>
<defs>
<radialGradient id="paint0_radial_12153_16075" cx="0" cy="0" r="1" gradientUnits="userSpaceOnUse" gradientTransform="translate(60.25 55.9226) rotate(90) scale(29.0792 76.7213)">
<stop stop-color="white"/>
<stop offset="1" stop-color="white"/>
</radialGradient>
</defs>
</svg>
