<svg width="16" height="16" viewBox="0 0 16 16" fill="none" xmlns="http://www.w3.org/2000/svg">
<path d="M8.00003 6.5V2.25C8.00003 1.91848 7.86834 1.60054 7.63392 1.36612C7.3995 1.1317 7.08155 1 6.75003 1C6.41851 1 6.10057 1.1317 5.86615 1.36612C5.63173 1.60054 5.50003 1.91848 5.50003 2.25V9.82913L4.12956 7.45541C4.04756 7.3131 3.93832 7.18835 3.80808 7.08829C3.67784 6.98822 3.52916 6.9148 3.37054 6.87223C3.21191 6.82965 3.04645 6.81876 2.88361 6.84016C2.72077 6.86156 2.56374 6.91485 2.42151 6.99697C2.27927 7.07909 2.15461 7.18844 2.05466 7.31876C1.9547 7.44908 1.88141 7.59782 1.83897 7.75648C1.79652 7.91514 1.78577 8.08062 1.80731 8.24344C1.82885 8.40626 1.88226 8.56324 1.9645 8.70541C4.00003 13 5.23861 14.5 8.00003 14.5C8.65664 14.5 9.30682 14.3707 9.91345 14.1194C10.5201 13.8681 11.0713 13.4998 11.5356 13.0355C11.9999 12.5712 12.3682 12.02 12.6194 11.4134C12.8707 10.8068 13 10.1566 13 9.5V7C13 6.66848 12.8683 6.35054 12.6339 6.11612C12.3995 5.8817 12.0816 5.75 11.75 5.75C11.4185 5.75 11.1006 5.8817 10.8661 6.11612C10.6317 6.35054 10.5 6.66848 10.5 7" stroke="white" stroke-linecap="round" stroke-linejoin="round"/>
<path d="M10.5 7V6.25C10.5 5.91848 10.3683 5.60054 10.1339 5.36612C9.89946 5.1317 9.58152 5 9.25 5C8.91848 5 8.60054 5.1317 8.36612 5.36612C8.1317 5.60054 8 5.91848 8 6.25V6.5" stroke="white" stroke-linecap="round" stroke-linejoin="round"/>
</svg>
