<svg width="12" height="12" viewBox="0 0 12 12" fill="none" xmlns="http://www.w3.org/2000/svg">
<path d="M2.02451 2.90094L3.92701 4.57494L5.62201 2.48794C5.66947 2.42959 5.72948 2.38271 5.79758 2.35077C5.86567 2.31884 5.9401 2.30268 6.01531 2.3035C6.09051 2.30431 6.16457 2.32209 6.23195 2.35549C6.29934 2.3889 6.35832 2.43708 6.40451 2.49644L8.02201 4.57444L9.98601 2.87644C10.0631 2.80989 10.1587 2.76849 10.26 2.75778C10.3613 2.74707 10.4635 2.76755 10.5528 2.81649C10.6422 2.86543 10.7144 2.94049 10.76 3.03162C10.8055 3.12276 10.8221 3.22562 10.8075 3.32644L10.0575 8.49994H1.96101L1.19951 3.34994C1.18438 3.24856 1.20078 3.14498 1.24648 3.05322C1.29218 2.96147 1.36498 2.88598 1.45502 2.83698C1.54505 2.78798 1.64797 2.76784 1.74983 2.77928C1.8517 2.79072 1.94758 2.83319 2.02451 2.90094ZM2.00001 8.99994H10V9.49994C10 9.63255 9.94733 9.75972 9.85356 9.85349C9.75979 9.94726 9.63261 9.99994 9.50001 9.99994H2.50001C2.3674 9.99994 2.24022 9.94726 2.14645 9.85349C2.05268 9.75972 2.00001 9.63255 2.00001 9.49994V8.99994Z" fill="#9C653C"/>
</svg>
