<svg width="20" height="20" viewBox="0 0 20 20" fill="none" xmlns="http://www.w3.org/2000/svg">
<path fill-rule="evenodd" clip-rule="evenodd" d="M4.18 2.39994L4.14761 2.39992C4.01332 2.39982 3.88822 2.39972 3.77455 2.4159C3.06992 2.51618 2.51624 3.06986 2.41596 3.77449C2.39978 3.88816 2.39988 4.01326 2.39998 4.14755L2.4 4.17994V9.1624L2.39999 9.17627L2.39999 9.17628C2.39997 9.23798 2.39995 9.2968 2.40422 9.35551C2.43011 9.71103 2.57397 10.0477 2.81299 10.3122C2.85246 10.3558 2.89499 10.3965 2.9396 10.4391L2.94962 10.4487L9.41795 16.6358L9.44083 16.6577C9.53595 16.7488 9.62466 16.8338 9.71652 16.8999C10.2855 17.3094 11.0547 17.3008 11.6144 16.8788C11.7047 16.8107 11.7915 16.7238 11.8846 16.6306L11.907 16.6082L16.6082 11.9069L16.6306 11.8845C16.7238 11.7915 16.8108 11.7047 16.8789 11.6143C17.3009 11.0546 17.3094 10.2854 16.9 9.71646C16.8339 9.6246 16.7489 9.53589 16.6578 9.44078L16.6578 9.44077L16.6359 9.41789L10.4488 2.94956L10.4392 2.93953C10.3965 2.89492 10.3559 2.8524 10.3122 2.81293C10.0478 2.57391 9.71109 2.43005 9.35557 2.40416C9.29686 2.39989 9.23805 2.39991 9.17634 2.39993L9.17633 2.39993L9.16246 2.39994H4.18ZM3.94364 3.60393C3.96107 3.60144 3.99218 3.59994 4.18 3.59994H9.16246C9.24669 3.59994 9.25899 3.6003 9.26842 3.60099C9.3573 3.60746 9.44148 3.64343 9.50759 3.70318C9.51461 3.70953 9.52337 3.71816 9.58159 3.77903L15.7687 10.2474C15.8959 10.3804 15.9158 10.4033 15.926 10.4174C16.0283 10.5596 16.0262 10.7519 15.9207 10.8919C15.9102 10.9058 15.8898 10.9282 15.7597 11.0584L11.0584 15.7596C10.9283 15.8898 10.9058 15.9102 10.8919 15.9207C10.752 16.0262 10.5597 16.0283 10.4175 15.9259C10.4034 15.9158 10.3804 15.8959 10.2474 15.7686L3.77909 9.58153C3.71822 9.52331 3.70959 9.51455 3.70325 9.50753C3.64349 9.44141 3.60752 9.35724 3.60105 9.26836C3.60037 9.25892 3.6 9.24663 3.6 9.1624V4.17994C3.6 3.99212 3.60151 3.96101 3.60399 3.94357C3.62906 3.76742 3.76748 3.629 3.94364 3.60393ZM6.16699 7.33323C6.16699 6.6889 6.68932 6.16656 7.33366 6.16656C7.97799 6.16656 8.50032 6.6889 8.50032 7.33323C8.50032 7.97756 7.97799 8.49989 7.33366 8.49989C6.68932 8.49989 6.16699 7.97756 6.16699 7.33323ZM7.33366 5.16656C6.13704 5.16656 5.16699 6.13661 5.16699 7.33323C5.16699 8.52984 6.13704 9.49989 7.33366 9.49989C8.53027 9.49989 9.50032 8.52984 9.50032 7.33323C9.50032 6.13661 8.53027 5.16656 7.33366 5.16656Z" fill="#97A2B4"/>
</svg>
