<svg width="20" height="20" viewBox="0 0 20 20" fill="none" xmlns="http://www.w3.org/2000/svg">
<path fill-rule="evenodd" clip-rule="evenodd" d="M8.54321 1.72497C9.09591 0.450401 10.9034 0.450399 11.4561 1.72497L13.0914 5.49602C13.133 5.59209 13.2236 5.65791 13.3279 5.66784L17.4197 6.05775C18.8027 6.18953 19.3612 7.90859 18.3198 8.8281L15.2387 11.5486C15.1602 11.6179 15.1256 11.7244 15.1483 11.8267L16.0419 15.8387C16.344 17.1947 14.8817 18.2571 13.6853 17.5508L10.1458 15.4612C10.0557 15.408 9.94368 15.4079 9.8535 15.4612L6.31399 17.5508C5.11767 18.2571 3.65535 17.1947 3.95739 15.8387L4.851 11.8267C4.87377 11.7244 4.83916 11.6179 4.76067 11.5486L1.67951 8.8281C0.638116 7.90859 1.19667 6.18953 2.57965 6.05775L6.67145 5.66784C6.7757 5.65791 6.86629 5.59209 6.90795 5.49602L8.54321 1.72497ZM10.2634 2.24216C10.1633 2.01134 9.83599 2.01134 9.7359 2.24216L8.10064 6.01321C7.87061 6.54368 7.37036 6.90713 6.79477 6.96198L2.70297 7.35189C2.45251 7.37575 2.35135 7.68708 2.53995 7.8536L5.62111 10.5741C6.05453 10.9568 6.24561 11.5449 6.11991 12.1093L5.22629 16.1213C5.17159 16.3669 5.43642 16.5593 5.65308 16.4314L9.19259 14.3417C9.69049 14.0478 10.3088 14.0478 10.8067 14.3417L14.3463 16.4314C14.5629 16.5593 14.8277 16.3669 14.773 16.1213L13.8794 12.1093C13.7537 11.5449 13.9448 10.9568 14.3782 10.5741L17.4594 7.8536C17.648 7.68708 17.5468 7.37575 17.2964 7.35189L13.2046 6.96198C12.629 6.90713 12.1287 6.54368 11.8987 6.01321L10.2634 2.24216Z" fill="#97A2B4"/>
</svg>
