<svg width="20" height="20" viewBox="0 0 20 20" fill="none" xmlns="http://www.w3.org/2000/svg">
<path d="M2 3H3.24441C3.60428 3 3.78421 3 3.93049 3.06525C4.05945 3.12277 4.16961 3.21543 4.24837 3.33262C4.33772 3.46556 4.36855 3.64283 4.43021 3.99738L4.71465 5.63288M4.71465 5.63288L5.37891 9.45239C5.5137 10.2274 5.58109 10.6149 5.78069 10.8941C5.95644 11.1399 6.20213 11.3271 6.48576 11.4313C6.80789 11.5496 7.19939 11.5117 7.98239 11.436L15.2502 10.7326C16.0143 10.6587 16.3964 10.6217 16.6856 10.4498C16.9437 10.2963 17.15 10.0691 17.2779 9.79735C17.4212 9.49299 17.4212 9.10911 17.4212 8.34137V8.34137C17.4212 7.52542 17.4212 7.11744 17.2648 6.80184C17.1254 6.52032 16.9013 6.28952 16.6241 6.14181C16.3132 5.97621 15.9054 5.96414 15.0898 5.94L4.71465 5.63288Z" stroke="#97A2B4" stroke-width="1.38" stroke-linecap="round" stroke-linejoin="round"/>
<circle cx="7.64318" cy="15.4122" r="1.5045" stroke="#97A2B4" stroke-width="1.38"/>
<circle cx="14.7887" cy="15.4122" r="1.5045" stroke="#97A2B4" stroke-width="1.38"/>
</svg>
