<svg width="24" height="24" viewBox="0 0 24 24" fill="none" xmlns="http://www.w3.org/2000/svg">
<path d="M4.5 3H6M19.5 3H18M4.5 21H6M19.5 21H18M6 3H18M6 3C6 6 7.125 7.5 8.25 8.625M10.5 12H13.5M10.5 12C10.5 11.4055 10.3233 10.9289 10.04 10.5M10.5 12C10.5 14.7261 6.78408 14.975 6.10565 19.5M6 21H18M6 21C6 20.4523 6.0375 19.9546 6.10565 19.5M18 3C18 6 16.875 7.5 15.75 8.625M13.5 12C13.5 11.4055 13.6767 10.9289 13.96 10.5M13.5 12C13.5 14.7261 17.2159 14.975 17.8943 19.5M18 21C18 20.4523 17.9625 19.9546 17.8943 19.5M15 9.3435H9M15 9.3435C14.5969 9.72601 14.23 10.0913 13.96 10.5M15 9.3435C15.2413 9.1145 15.4957 8.87933 15.75 8.625M9 9.3435C9.40312 9.72601 9.76997 10.0913 10.04 10.5M9 9.3435C8.75867 9.1145 8.50433 8.87933 8.25 8.625M10.04 10.5H13.96M15.75 8.625H8.25M17.8943 19.5H6.10565" stroke="#97A2B4" stroke-width="1.4" stroke-linecap="round" stroke-linejoin="round"/>
</svg>
